<?xml version="1.0" standalone="no"?>
<!DOCTYPE svg PUBLIC "-//W3C//DTD SVG 20010904//EN"
 "http://www.w3.org/TR/2001/REC-SVG-20010904/DTD/svg10.dtd">
<svg version="1.0" xmlns="http://www.w3.org/2000/svg"
 width="736.000000pt" height="736.000000pt" viewBox="0 0 736.000000 736.000000"
 preserveAspectRatio="xMidYMid meet">
<metadata>
Created by potrace 1.14, written by Peter Selinger 2001-2017
</metadata>
<g transform="translate(0.000000,736.000000) scale(0.100000,-0.100000)"
fill="#000000" stroke="none">
<path d="M1306 6938 c3 -13 13 -30 21 -40 8 -9 15 -22 17 -30 1 -7 5 -18 9
-24 6 -11 33 -62 232 -449 40 -77 108 -210 152 -295 44 -85 104 -202 134 -260
29 -58 58 -108 64 -112 5 -4 7 -8 3 -8 -4 0 1 -15 11 -32 10 -18 74 -143 144
-278 69 -135 152 -296 184 -357 l58 -113 2513 0 2512 0 -12 22 c-7 12 -16 27
-21 32 -8 12 -65 103 -265 426 -67 107 -125 200 -129 206 -14 18 -33 49 -40
64 -4 8 -28 48 -55 88 -26 41 -48 75 -48 78 0 2 -24 42 -52 87 -29 46 -58 92
-65 103 -7 10 -40 64 -75 119 -35 55 -65 104 -68 110 -3 5 -22 36 -42 68 -21
31 -38 62 -38 67 0 6 -4 10 -9 10 -5 0 -14 14 -21 30 -7 17 -16 30 -21 30 -5
0 -9 6 -9 13 0 6 -14 32 -31 57 -16 25 -49 76 -72 114 -23 38 -50 80 -59 95
-9 14 -25 41 -34 59 -9 17 -21 32 -26 32 -5 0 -7 4 -4 8 3 5 -2 18 -12 28 -9
10 -23 31 -31 47 l-14 27 -2404 0 -2404 0 7 -22z"/>
<path d="M5085 4750 c-28 -5 -59 -44 -97 -120 -7 -14 -15 -27 -18 -30 -3 -3
-10 -14 -17 -25 -20 -34 -170 -283 -411 -683 -128 -211 -232 -388 -232 -393 0
-5 -4 -9 -8 -9 -5 0 -16 -15 -25 -32 -9 -18 -27 -50 -39 -70 -13 -21 -66 -108
-118 -195 -52 -87 -98 -159 -102 -161 -5 -2 -8 -8 -8 -13 0 -9 -128 -227 -140
-239 -3 -3 -10 -14 -16 -26 l-12 -20 1132 0 1132 0 40 65 c21 36 48 79 59 97
11 17 35 58 54 90 19 33 38 61 41 64 7 5 89 138 105 170 5 11 13 20 17 20 5 0
8 4 8 10 0 5 16 34 35 65 20 30 35 58 34 61 0 4 3 10 8 13 5 3 60 89 123 191
63 102 118 187 122 188 5 2 8 8 8 13 0 8 33 62 95 159 28 44 243 388 258 415
7 11 23 38 37 60 14 22 30 49 37 60 6 11 48 77 92 148 44 70 75 127 68 128
-62 3 -2240 3 -2262 -1z"/>
<path d="M1245 2420 c-28 -5 -33 -11 -85 -100 -11 -19 -26 -44 -33 -54 -51
-81 -97 -157 -97 -161 0 -3 -20 -36 -45 -75 -25 -39 -45 -75 -45 -80 0 -6 -4
-10 -8 -10 -5 0 -14 -12 -21 -27 -10 -23 -66 -116 -181 -303 -26 -42 -138
-230 -159 -265 -12 -22 -29 -47 -37 -56 -8 -8 -14 -19 -14 -23 0 -4 -15 -31
-33 -60 -17 -28 -37 -61 -44 -72 -7 -10 -79 -129 -160 -263 -81 -134 -158
-260 -170 -280 -13 -20 -26 -43 -29 -51 -4 -8 -12 -22 -19 -30 -6 -8 -24 -36
-39 -62 l-27 -48 1169 0 1168 0 46 83 c25 45 60 108 78 141 18 32 45 81 61
108 16 27 29 51 29 53 0 2 25 47 55 100 30 54 55 99 55 101 0 1 15 29 34 61
32 57 72 128 126 228 15 28 38 70 52 95 14 25 40 72 58 105 18 33 42 76 53 95
11 19 38 69 60 110 22 41 51 92 64 112 13 21 23 39 23 41 0 4 99 184 168 307
63 112 152 277 152 281 0 6 -2170 5 -2205 -1z"/>
</g>
</svg>
