<?xml version="1.0" standalone="no"?>
<!DOCTYPE svg PUBLIC "-//W3C//DTD SVG 20010904//EN"
 "http://www.w3.org/TR/2001/REC-SVG-20010904/DTD/svg10.dtd">
<svg version="1.0" xmlns="http://www.w3.org/2000/svg"
 width="289.000000pt" height="289.000000pt" viewBox="0 0 289.000000 289.000000"
 preserveAspectRatio="xMidYMid meet">
<metadata>
Created by potrace 1.14, written by Peter Selinger 2001-2017
</metadata>
<g transform="translate(0.000000,289.000000) scale(0.100000,-0.100000)"
fill="#000000" stroke="none">
<path d="M445 2710 c-3 -5 85 -190 197 -410 l203 -400 1018 0 c855 0 1018 2
1023 14 3 7 -28 65 -69 127 -84 130 -154 237 -321 497 l-118 182 -963 0 c-619
0 -966 -4 -970 -10z"/>
<path d="M1974 1822 c-20 -13 -485 -782 -479 -792 4 -6 170 -10 454 -10 l447
0 134 213 c73 116 152 241 175 277 149 232 186 294 181 306 -4 12 -82 14 -453
14 -246 0 -453 -4 -459 -8z"/>
<path d="M465 958 c-9 -13 -86 -138 -171 -278 -85 -140 -158 -262 -163 -270
-69 -108 -131 -221 -126 -230 4 -7 153 -10 448 -10 l442 0 14 23 c177 281 461
762 457 773 -5 12 -71 14 -445 14 l-440 0 -16 -22z"/>
</g>
</svg>
