<svg width="1090" height="903" viewBox="0 0 1090 903" fill="none" xmlns="http://www.w3.org/2000/svg">
<path d="M362.956 520.5C400.119 556.655 375.177 598.3 409.326 636.5C456.81 689.617 406.5 720.5 453 720.5C509.082 766.421 441 770.5 441 770.5L-30 704.5V311C-30 311 20.8413 449.499 105.543 495C190.849 540.825 296.757 456.097 362.956 520.5Z" fill="#FF5555"/>
<path d="M111 465.5C65.3636 448.931 -9 498 -9 498L-56.5 955L807 944.5C807 944.5 724.762 836.57 652.5 792.5C594.355 757.04 522.994 761.049 489.5 730.5C441.747 686.945 461.047 626.668 412.5 584C342.855 522.79 253.08 596.762 179 541C147.297 517.137 148.298 479.042 111 465.5Z" fill="#FF9DA3"/>
<path d="M209.007 611.968C296.483 632.328 272.777 749.64 352.377 791.106C427.568 830.276 505.059 754.833 568.783 810.636C610.294 846.987 631 937.245 631 937.245H-46.5L-77 541L65.0943 621.137C113.118 633.081 184.434 606.248 209.007 611.968Z" fill="#FFD1D1"/>
<path d="M42.3839 543.262C-14.4273 522.595 -107 583.801 -107 583.801V958H681C681 958 566.557 924.346 513.566 873.805C455.287 818.222 478.146 744.292 417.711 691.071C331.012 614.721 219.254 706.989 127.035 637.436C87.5689 607.67 88.8152 560.154 42.3839 543.262Z" stroke="white"/>
<path d="M149.018 802.705C171.055 819.049 156.265 837.875 176.515 855.144C204.673 879.156 260.337 875.826 283.329 890.178C316.586 910.937 301.661 939 301.661 939H-84V708C-84 708 -53.8517 770.609 -3.62464 791.178C46.9606 811.894 109.763 773.592 149.018 802.705Z" stroke="white"/>
<path d="M1089 791C1089 791 971.632 623.069 856.727 582.106C730.026 536.938 635.541 670.111 513.697 613.123C432.953 575.359 428.851 496.463 351.042 452.971C282.671 414.755 216.258 450.902 158.009 398.532C81.2099 329.484 152.138 230.022 101.048 140.263C65.0184 76.9632 -23 1 -23 1" stroke="#FF5555"/>
</svg>
