<svg width="88" height="88" viewBox="0 0 88 88" fill="none" xmlns="http://www.w3.org/2000/svg">
<g filter="url(#filter0_d_212_6)">
<circle cx="44" cy="40" r="40" fill="#FF7878"/>
</g>
<path d="M43.9854 24C40.6774 24 37.9957 26.6817 37.9957 29.9898C37.9957 33.2978 40.6774 35.9795 43.9854 35.9795C47.2934 35.9795 49.9752 33.2978 49.9752 29.9898C49.9752 26.6817 47.2934 24 43.9854 24Z" fill="#FFDBDB"/>
<path d="M57.4756 26.9921C54.9921 26.9921 52.9788 29.0053 52.9788 31.4889C52.9788 33.9724 54.9921 35.9857 57.4756 35.9857C59.959 35.9857 61.9723 33.9724 61.9723 31.4889C61.9723 29.0053 59.959 26.9921 57.4756 26.9921Z" fill="#FFDBDB"/>
<path d="M30.4942 26.9921C28.0107 26.9921 25.9974 29.0053 25.9974 31.4889C25.9974 33.9724 28.0107 35.9857 30.4942 35.9857C32.9777 35.9857 34.991 33.9724 34.991 31.4889C34.991 29.0053 32.9777 26.9921 30.4942 26.9921Z" fill="#FFDBDB"/>
<path d="M34.9921 41.9603C35.0025 40.3136 36.3407 38.9818 37.9899 38.9818H49.9813C51.637 38.9818 52.9792 40.324 52.9792 41.9797V50.9742C52.9792 51.2845 52.9636 51.5915 52.9327 51.8936C52.8677 52.5355 52.7349 53.1572 52.5421 53.752C51.3717 57.3596 47.9832 59.9678 43.9856 59.9678C39.9499 59.9678 36.535 57.3096 35.3963 53.6486C35.1336 52.8038 34.992 51.9056 34.992 50.9742V41.9797C34.992 41.9732 34.992 41.9668 34.9921 41.9603Z" fill="#FFDBDB"/>
<path d="M31.9936 41.9797C31.9936 40.8876 32.2856 39.8637 32.7957 38.9818H25.9979C24.3422 38.9818 23 40.324 23 41.9797V49.4753C23 53.6144 26.3555 56.9699 30.4947 56.9699C31.4873 56.9699 32.4349 56.7769 33.3019 56.4264C32.4655 54.7908 31.9936 52.9375 31.9936 50.9742V41.9797Z" fill="#FFDBDB"/>
<path d="M55.979 41.9797V50.9742C55.979 52.9375 55.5071 54.7908 54.6707 56.4264C55.5377 56.7769 56.4853 56.9699 57.4779 56.9699C61.6171 56.9699 64.9726 53.6144 64.9726 49.4753V41.9797C64.9726 40.324 63.6304 38.9818 61.9747 38.9818H55.1768C55.687 39.8637 55.979 40.8876 55.979 41.9797Z" fill="#FFDBDB"/>
<defs>
<filter id="filter0_d_212_6" x="0" y="0" width="88" height="88" filterUnits="userSpaceOnUse" color-interpolation-filters="sRGB">
<feFlood flood-opacity="0" result="BackgroundImageFix"/>
<feColorMatrix in="SourceAlpha" type="matrix" values="0 0 0 0 0 0 0 0 0 0 0 0 0 0 0 0 0 0 127 0" result="hardAlpha"/>
<feOffset dy="4"/>
<feGaussianBlur stdDeviation="2"/>
<feComposite in2="hardAlpha" operator="out"/>
<feColorMatrix type="matrix" values="0 0 0 0 0 0 0 0 0 0 0 0 0 0 0 0 0 0 0.25 0"/>
<feBlend mode="normal" in2="BackgroundImageFix" result="effect1_dropShadow_212_6"/>
<feBlend mode="normal" in="SourceGraphic" in2="effect1_dropShadow_212_6" result="shape"/>
</filter>
</defs>
</svg>
