<svg width="390" height="390" viewBox="0 0 390 390" fill="none" xmlns="http://www.w3.org/2000/svg">
<g filter="url(#filter0_d_1_206)">
<path d="M35.2064 119.858C46.15 86.1772 67.477 56.8262 96.1297 36.0129C124.783 15.1997 159.29 3.9932 194.704 4L194.689 78.9088C175.097 78.9051 156.006 85.105 140.154 96.6197C124.302 108.134 112.503 124.373 106.449 143.006L35.2064 119.858Z" fill="#FFC5C8"/>
<path d="M96.1168 307.321C67.466 286.505 46.1419 257.152 35.2015 223.47C24.2611 189.788 24.2663 153.506 35.2164 119.828L78.8514 110.803L106.455 142.989C100.397 161.622 100.394 181.694 106.446 200.328C112.499 218.963 124.296 235.202 140.147 246.718L96.1168 307.321Z" fill="#FF9DA3"/>
<path d="M293.227 307.321C264.576 328.137 230.07 339.347 194.656 339.343C159.241 339.34 124.738 328.123 96.0909 307.302L98.2957 261.284L140.133 246.708C155.981 258.227 175.07 264.432 194.663 264.434C214.256 264.436 233.346 258.234 249.196 246.718L293.227 307.321Z" fill="#FF7878"/>
<path d="M354.137 119.858C365.08 153.539 365.079 189.82 354.132 223.5C343.185 257.18 321.855 286.529 293.2 307.34L249.182 293.128V246.729C265.035 235.215 276.835 218.978 282.891 200.345C288.948 181.712 288.949 161.64 282.894 143.006L354.137 119.858Z" fill="#E24141"/>
<path d="M194.672 4C230.086 4 264.591 15.2131 293.24 36.0319C321.889 56.8506 343.21 86.2057 354.147 119.889L326.555 153.918L282.9 143.023C276.849 124.388 265.053 108.148 249.204 96.6302C233.354 85.1124 214.264 78.9088 194.672 78.9088L218.343 41.4795L194.672 4Z" fill="#AA242C"/>
<path d="M194.672 4L175.5 41.4795L194.672 78.959L218.343 41.4795L194.672 4Z" fill="#FEC4CB"/>
<path fill-rule="evenodd" clip-rule="evenodd" d="M286.383 78.1819C290.813 73.7516 290.813 66.5687 286.383 62.1384C281.953 57.708 274.77 57.708 270.339 62.1384C265.909 66.5687 265.909 73.7516 270.339 78.1819C274.77 82.6122 281.953 82.6122 286.383 78.1819ZM288.79 85.9362C281.448 90.8 271.46 89.9979 264.992 83.5297C257.608 76.1459 257.608 64.1743 264.992 56.7905C272.375 49.4067 284.347 49.4067 291.731 56.7905C298.199 63.2586 299.001 73.2471 294.137 80.5884L302.427 88.8776C303.903 90.3544 303.903 92.7487 302.427 94.2254C300.95 95.7022 298.556 95.7022 297.079 94.2254L288.79 85.9362Z" fill="#1B1B1B"/>
<path d="M296.425 213.892L300.496 212.195C300.584 212.145 300.658 212.073 300.711 211.987C300.764 211.901 300.794 211.803 300.799 211.702C300.794 211.601 300.764 211.503 300.711 211.417C300.658 211.33 300.584 211.259 300.496 211.209L296.423 209.511H296.417L294.72 205.432C294.674 205.341 294.605 205.264 294.518 205.211C294.432 205.157 294.332 205.129 294.23 205.129C294.128 205.129 294.029 205.157 293.942 205.211C293.856 205.264 293.786 205.341 293.74 205.432L292.04 209.51H292.035L287.957 211.21C287.869 211.26 287.795 211.331 287.742 211.417C287.689 211.503 287.658 211.602 287.653 211.703C287.658 211.804 287.689 211.902 287.741 211.988C287.794 212.074 287.868 212.146 287.956 212.196L292.031 213.889H292.036L293.734 217.969C293.779 218.06 293.849 218.137 293.935 218.191C294.022 218.245 294.122 218.273 294.224 218.273C294.325 218.273 294.425 218.245 294.512 218.191C294.598 218.137 294.668 218.06 294.713 217.969L296.413 213.892H296.425ZM326.386 238.277L326.304 238.243L326.222 238.201C325.695 237.937 325.251 237.532 324.942 237.03C324.632 236.528 324.468 235.95 324.468 235.361C324.468 234.771 324.632 234.193 324.942 233.692C325.251 233.19 325.695 232.785 326.222 232.52L326.304 232.48L326.386 232.445L329.467 231.16L330.751 228.081L330.784 227.999L330.823 227.921C331.139 227.285 331.692 226.801 332.331 226.496C332.331 226.386 332.351 226.275 332.353 226.167V211.703C332.353 211.006 332.076 210.337 331.583 209.844C331.09 209.351 330.421 209.074 329.724 209.074C329.026 209.074 328.358 209.351 327.864 209.844C327.371 210.337 327.094 211.006 327.094 211.703V217.619C327.094 217.793 327.025 217.961 326.902 218.084C326.778 218.207 326.611 218.276 326.437 218.276H325.122C324.948 218.276 324.781 218.207 324.657 218.084C324.534 217.961 324.465 217.793 324.465 217.619V205.129C324.465 204.432 324.188 203.763 323.695 203.27C323.202 202.777 322.533 202.5 321.836 202.5C321.138 202.5 320.469 202.777 319.976 203.27C319.483 203.763 319.206 204.432 319.206 205.129V217.619C319.206 217.793 319.137 217.961 319.014 218.084C318.89 218.207 318.723 218.276 318.549 218.276H317.234C317.06 218.276 316.893 218.207 316.769 218.084C316.646 217.961 316.577 217.793 316.577 217.619V202.5C316.577 201.803 316.3 201.134 315.807 200.641C315.313 200.148 314.645 199.871 313.947 199.871C313.25 199.871 312.581 200.148 312.088 200.641C311.595 201.134 311.318 201.803 311.318 202.5V217.619C311.318 217.793 311.249 217.961 311.125 218.084C311.002 218.207 310.835 218.276 310.661 218.276H309.346C309.172 218.276 309.004 218.207 308.881 218.084C308.758 217.961 308.689 217.793 308.689 217.619V205.129C308.689 204.432 308.412 203.763 307.918 203.27C307.425 202.777 306.757 202.5 306.059 202.5C305.362 202.5 304.693 202.777 304.2 203.27C303.707 203.763 303.43 204.432 303.43 205.129V224.932L301.491 222.262C300.978 221.557 300.206 221.085 299.345 220.949C298.483 220.813 297.603 221.025 296.898 221.538C296.193 222.052 295.721 222.824 295.585 223.685C295.449 224.547 295.661 225.427 296.174 226.132L306.495 240.315C306.86 240.818 307.34 241.227 307.894 241.51C308.447 241.792 309.06 241.94 309.682 241.941H325.919C327.5 241.941 328.849 240.977 329.472 239.575L329.467 239.561L326.386 238.277ZM316.395 227.769L313.947 228.788L312.927 231.235C312.899 231.29 312.858 231.335 312.806 231.367C312.754 231.399 312.694 231.416 312.633 231.416C312.572 231.416 312.512 231.399 312.46 231.367C312.409 231.335 312.367 231.29 312.339 231.235L311.318 228.788L308.87 227.769C308.815 227.741 308.769 227.699 308.737 227.647C308.705 227.595 308.688 227.535 308.688 227.474C308.688 227.413 308.705 227.353 308.737 227.301C308.769 227.249 308.815 227.207 308.87 227.18L311.318 226.16L312.338 223.713C312.366 223.658 312.408 223.612 312.46 223.58C312.512 223.548 312.571 223.531 312.632 223.531C312.693 223.531 312.753 223.548 312.805 223.58C312.857 223.612 312.899 223.658 312.926 223.713L313.947 226.16L316.395 227.18C316.45 227.207 316.496 227.249 316.528 227.301C316.56 227.353 316.577 227.413 316.577 227.474C316.577 227.535 316.56 227.595 316.528 227.647C316.496 227.699 316.45 227.741 316.395 227.769ZM340.241 235.36C340.237 235.259 340.207 235.161 340.154 235.075C340.101 234.988 340.027 234.917 339.939 234.867L335.866 233.169H335.86L334.161 229.092C334.115 229.001 334.046 228.925 333.959 228.871C333.873 228.818 333.773 228.789 333.671 228.789C333.569 228.789 333.47 228.818 333.383 228.871C333.297 228.925 333.227 229.001 333.181 229.092L331.48 233.17H331.476L327.398 234.874C327.31 234.924 327.236 234.996 327.184 235.082C327.131 235.168 327.101 235.266 327.096 235.367C327.101 235.468 327.132 235.565 327.185 235.651C327.238 235.736 327.311 235.807 327.398 235.856L331.471 237.555H331.477L333.175 241.63C333.22 241.721 333.29 241.798 333.376 241.851C333.463 241.905 333.563 241.934 333.664 241.934C333.766 241.934 333.866 241.905 333.953 241.851C334.039 241.798 334.109 241.721 334.154 241.63L335.854 237.552H335.862L339.933 235.855C340.02 235.805 340.094 235.734 340.147 235.649C340.2 235.563 340.23 235.466 340.236 235.366L340.241 235.36Z" fill="#1B1B1B"/>
<path d="M217.289 295.156C223.726 295.156 228.944 300.374 228.944 306.81C228.944 313.247 223.726 318.465 217.289 318.465C210.853 318.465 205.635 313.247 205.635 306.81C205.635 300.374 210.853 295.156 217.289 295.156ZM172.79 293.037C179.227 293.037 184.445 298.255 184.445 304.691C184.445 311.128 179.227 316.346 172.79 316.346C166.354 316.346 161.136 311.128 161.136 304.691C161.136 298.255 166.354 293.037 172.79 293.037ZM172.79 298.334C169.279 298.334 166.433 301.181 166.433 304.691C166.433 308.202 169.279 311.048 172.79 311.048C176.301 311.048 179.147 308.202 179.147 304.691C179.147 301.181 176.301 298.334 172.79 298.334ZM186.564 276.085V284.561C189.655 281.287 194.419 278.929 199.277 278.929C206.961 278.929 213.451 284.042 215.531 291.05C213.673 291.331 211.96 292.05 210.499 293.1C209.253 288.06 204.701 284.323 199.277 284.323C195.853 284.323 192.918 286.434 190.802 288.799H199.278L195.04 293.037H182.326V280.323L186.564 276.085Z" fill="#1B1B1B"/>
<path d="M53.9976 199.63L57.949 201.387C58.3288 201.556 58.7386 201.647 59.1542 201.654C59.5698 201.662 59.9827 201.587 60.3686 201.432L61.6115 200.935C62.0459 200.761 62.4356 200.491 62.7515 200.146C63.0673 199.801 63.3013 199.389 63.436 198.941L64.3327 195.96C64.4143 195.633 64.5656 195.328 64.7763 195.065C64.987 194.803 65.252 194.589 65.5532 194.438L67.7044 193.361V198.255C67.7046 199.122 67.4633 199.972 67.0076 200.71C66.5519 201.447 65.8997 202.043 65.1243 202.431L59.5595 205.218C58.2677 205.864 57.1814 206.858 56.4224 208.087C55.6633 209.316 55.2615 210.732 55.2619 212.177V213.589H86.3691V194.917C86.3691 184.608 78.0132 176.244 67.7044 176.244H53.3169C53.0073 176.244 52.7105 176.367 52.4916 176.586C52.2728 176.805 52.1498 177.102 52.1498 177.411C52.1497 177.667 52.2093 177.919 52.3239 178.148L53.7059 180.912L52.8306 181.787C52.614 182.005 52.4424 182.263 52.3256 182.546C52.2088 182.83 52.1491 183.134 52.1498 183.441V196.785C52.1495 197.387 52.3238 197.976 52.6518 198.482C52.9798 198.987 53.4473 199.386 53.9976 199.63ZM57.207 185.58C57.5917 185.58 57.9677 185.694 58.2876 185.908C58.6074 186.122 58.8567 186.426 59.004 186.781C59.1512 187.136 59.1897 187.528 59.1146 187.905C59.0396 188.282 58.8543 188.629 58.5823 188.901C58.3103 189.173 57.9637 189.358 57.5864 189.433C57.2091 189.508 56.818 189.47 56.4626 189.322C56.1072 189.175 55.8034 188.926 55.5897 188.606C55.376 188.286 55.2619 187.91 55.2619 187.525C55.2619 187.01 55.4668 186.515 55.8316 186.15C56.1964 185.785 56.6911 185.58 57.207 185.58ZM87.9388 216.701H53.7059C53.2932 216.701 52.8974 216.865 52.6056 217.157C52.3138 217.449 52.1498 217.845 52.1498 218.257V221.369C52.1498 221.782 52.3138 222.178 52.6056 222.47C52.8974 222.761 53.2932 222.925 53.7059 222.925H87.9388C88.3515 222.925 88.7473 222.761 89.0391 222.47C89.3309 222.178 89.4948 221.782 89.4948 221.369V218.257C89.4948 217.845 89.3309 217.449 89.0391 217.157C88.7473 216.865 88.3515 216.701 87.9388 216.701Z" fill="#1B1B1B"/>
<path d="M133.399 66.4009C133.399 67.1295 132.809 67.7197 132.08 67.7197H124.167C123.439 67.7197 122.849 67.1295 122.849 66.4009V62.4447H107.024V74.3134C107.024 76.4234 108.87 78.2696 110.98 78.2696H145.267C147.377 78.2696 149.224 76.4234 149.224 74.3134V62.4447H133.399V66.4009ZM145.267 49.2572H138.674V45.301C138.674 43.191 136.827 41.3448 134.717 41.3448H121.53C119.42 41.3448 117.574 43.191 117.574 45.301V49.2572H110.98C108.87 49.2572 107.024 51.1035 107.024 53.2135V59.8072H149.224V53.2135C149.224 51.1035 147.377 49.2572 145.267 49.2572ZM133.399 49.2572H122.849V46.6197H133.399V49.2572Z" fill="#1B1B1B"/>
</g>
<defs>
<filter id="filter0_d_1_206" x="0" y="0" width="389.343" height="389.343" filterUnits="userSpaceOnUse" color-interpolation-filters="sRGB">
<feFlood flood-opacity="0" result="BackgroundImageFix"/>
<feColorMatrix in="SourceAlpha" type="matrix" values="0 0 0 0 0 0 0 0 0 0 0 0 0 0 0 0 0 0 127 0" result="hardAlpha"/>
<feOffset dy="23"/>
<feGaussianBlur stdDeviation="13.5"/>
<feComposite in2="hardAlpha" operator="out"/>
<feColorMatrix type="matrix" values="0 0 0 0 0 0 0 0 0 0 0 0 0 0 0 0 0 0 0.43 0"/>
<feBlend mode="normal" in2="BackgroundImageFix" result="effect1_dropShadow_1_206"/>
<feBlend mode="normal" in="SourceGraphic" in2="effect1_dropShadow_1_206" result="shape"/>
</filter>
</defs>
</svg>
