<svg width="88" height="88" viewBox="0 0 88 88" fill="none" xmlns="http://www.w3.org/2000/svg">
<g filter="url(#filter0_d_212_5)">
<circle cx="44" cy="40" r="40" fill="#FF7878"/>
</g>
<path fill-rule="evenodd" clip-rule="evenodd" d="M43.3808 47.6293C43.4701 47.6294 43.8162 47.633 44.3357 47.7234L44.2651 48.8763C44.2416 49.4881 43.7239 49.9822 43.1122 49.9822C41.7475 49.9822 40.8063 50.3822 40.171 51.1822C38.7357 53.0175 39.2298 56.6646 39.5357 57.9352C39.6298 58.2882 39.5357 58.6646 39.3239 58.947C39.0887 59.2294 38.7592 59.394 38.4063 59.394H33.9828C33.3239 59.394 32.8063 58.8764 32.8063 58.2176V47.6293H43.3808ZM56.4604 20.0449C56.7028 19.5554 57.2439 19.3037 57.7828 19.4237C58.3145 19.5507 58.6887 20.0237 58.6887 20.5696V31.2779C61.371 31.8238 63.3945 34.2002 63.3945 37.0403C63.3945 39.8803 61.371 42.2591 58.6887 42.805V53.511C58.6887 54.0568 58.3145 54.5321 57.7828 54.6568C57.694 54.6773 57.6032 54.6876 57.5122 54.6874C57.0722 54.6874 56.6628 54.4427 56.4604 54.038C52.1287 45.3768 43.4816 45.2756 43.3945 45.2756H31.6298C28.3851 45.2756 25.7475 42.6379 25.7475 39.3932V38.2167H24.571C23.9216 38.2167 23.3945 37.692 23.3945 37.0403C23.3945 36.3909 23.9216 35.8638 24.571 35.8638H25.7475V34.6873C25.7475 31.4449 28.3851 28.8049 31.6298 28.8049H43.3922C43.7451 28.8026 52.1522 28.659 56.4604 20.0449Z" fill="#FFDBDB"/>
<defs>
<filter id="filter0_d_212_5" x="0" y="0" width="88" height="88" filterUnits="userSpaceOnUse" color-interpolation-filters="sRGB">
<feFlood flood-opacity="0" result="BackgroundImageFix"/>
<feColorMatrix in="SourceAlpha" type="matrix" values="0 0 0 0 0 0 0 0 0 0 0 0 0 0 0 0 0 0 127 0" result="hardAlpha"/>
<feOffset dy="4"/>
<feGaussianBlur stdDeviation="2"/>
<feComposite in2="hardAlpha" operator="out"/>
<feColorMatrix type="matrix" values="0 0 0 0 0 0 0 0 0 0 0 0 0 0 0 0 0 0 0.25 0"/>
<feBlend mode="normal" in2="BackgroundImageFix" result="effect1_dropShadow_212_5"/>
<feBlend mode="normal" in="SourceGraphic" in2="effect1_dropShadow_212_5" result="shape"/>
</filter>
</defs>
</svg>
