<svg width="22" height="22" viewBox="0 0 22 22" fill="none" xmlns="http://www.w3.org/2000/svg">
<path d="M0.00012207 17.875V4.125C0.00012207 2.98681 0.403073 2.01476 1.20898 1.20885C2.01488 0.402951 2.98693 0 4.12512 0H17.8751C19.0133 0 19.9854 0.402951 20.7913 1.20885C21.5972 2.01476 22.0001 2.98681 22.0001 4.125V17.875C22.0001 19.0132 21.5972 19.9852 20.7913 20.7911C19.9854 21.597 19.0133 22 17.8751 22H4.12512C2.98693 22 2.01488 21.597 1.20898 20.7911C0.403073 19.9852 0.00012207 19.0132 0.00012207 17.875ZM3.66679 17.875C3.66679 17.9972 3.71262 18.1042 3.80429 18.1958C3.89596 18.2875 4.0029 18.3333 4.12512 18.3333H6.87512C6.99734 18.3333 7.10429 18.2894 7.19596 18.2016C7.28762 18.1137 7.33346 18.0049 7.33346 17.875V8.70833C7.33346 8.58611 7.28762 8.47917 7.19596 8.3875C7.10429 8.29583 6.99734 8.25 6.87512 8.25H4.12512C4.0029 8.25 3.89596 8.29583 3.80429 8.3875C3.71262 8.47917 3.66679 8.58611 3.66679 8.70833V17.875ZM4.18241 4.18802C3.83866 4.53559 3.66679 4.95382 3.66679 5.44271C3.66679 5.9316 3.83866 6.34983 4.18241 6.6974C4.52616 7.04497 4.94248 7.21875 5.43137 7.21875C5.94318 7.21875 6.36332 7.04306 6.69179 6.69167C7.03554 6.34792 7.20741 5.9316 7.20741 5.44271C7.20741 4.95382 7.03363 4.53559 6.68606 4.18802C6.33849 3.84045 5.92026 3.66667 5.43137 3.66667C4.94248 3.66667 4.52616 3.84045 4.18241 4.18802ZM8.25012 17.875C8.25012 17.9972 8.32269 18.1042 8.46783 18.1958C8.61297 18.2875 8.75811 18.3333 8.90325 18.3333H11.5157C11.6227 18.3333 11.7163 18.2875 11.7965 18.1958C11.8767 18.1042 11.9168 17.9972 11.9168 17.875V12.8792C11.9168 11.5424 12.463 10.874 13.5553 10.874C14.006 10.874 14.3039 10.9733 14.4491 11.1719C14.5942 11.3705 14.6668 11.7295 14.6668 12.249V17.875C14.6668 17.9972 14.7241 18.1042 14.8387 18.1958C14.9532 18.2875 15.0793 18.3333 15.2168 18.3333H17.8751C17.9973 18.3333 18.1043 18.2894 18.196 18.2016C18.2876 18.1137 18.3335 18.0049 18.3335 17.875V11.6531C18.3335 10.4538 17.9878 9.53524 17.2965 8.8974C16.6052 8.25955 15.6331 7.94063 14.3803 7.94063C13.5171 7.94063 12.7647 8.15833 12.123 8.59375C11.9932 8.67014 11.9244 8.72743 11.9168 8.76562C11.9168 8.42188 11.7526 8.25 11.4241 8.25H8.90325C8.75047 8.25 8.60342 8.28819 8.4621 8.36458C8.32078 8.44097 8.25012 8.53646 8.25012 8.65104V17.875Z" fill="#E2E2E2"/>
</svg>
