<svg width="46" height="41" viewBox="0 0 46 41" fill="none" xmlns="http://www.w3.org/2000/svg">
<path d="M8.08678 0L38.1468 4.76121e-05L46 12.6239H14.5929L8.08678 0Z" fill="#1E1E1E"/>
<path d="M31.6316 13.7964L31.6308 13.7977L46 13.7981L31.6316 13.7964Z" fill="#1E1E1E"/>
<path d="M31.6316 13.7964L31.6308 13.7977L46 13.7981L31.6316 13.7964Z" fill="url(#paint0_linear_1_447)"/>
<path d="M38.1468 26.4165L46 13.7981L31.6316 13.7964L24.0148 26.4165H38.1468Z" fill="url(#paint1_linear_1_447)"/>
<path d="M7.63957 28.3744H21.5643L14.5929 41H0L7.63957 28.3744Z" fill="#1E1E1E"/>
<path d="M7.63957 28.3744H21.5643L14.5929 41H0L7.63957 28.3744Z" fill="url(#paint2_linear_1_447)"/>
<path d="M7.63957 28.3744H21.5643L14.5929 41H0L7.63957 28.3744Z" fill="#212121"/>
<defs>
<linearGradient id="paint0_linear_1_447" x1="5.00821" y1="6.39148e-06" x2="145.211" y2="55.6539" gradientUnits="userSpaceOnUse">
<stop stop-color="#FF1C3E"/>
<stop offset="1" stop-color="#FF95A5"/>
</linearGradient>
<linearGradient id="paint1_linear_1_447" x1="35" y1="14" x2="32" y2="27" gradientUnits="userSpaceOnUse">
<stop stop-color="#101010"/>
<stop offset="0.495237" stop-color="#212121"/>
</linearGradient>
<linearGradient id="paint2_linear_1_447" x1="5.00821" y1="6.39148e-06" x2="145.211" y2="55.6539" gradientUnits="userSpaceOnUse">
<stop stop-color="#FF1C3E"/>
<stop offset="1" stop-color="#FF95A5"/>
</linearGradient>
</defs>
</svg>
