<svg width="294" height="103" viewBox="0 0 294 103" fill="none" xmlns="http://www.w3.org/2000/svg">
<path d="M4.004 81.094V97H1.848V81.094H4.004ZM8.03 91.324H3.52V89.388H7.568C8.63867 89.388 9.46 89.102 10.032 88.53C10.604 87.9433 10.89 87.1587 10.89 86.176C10.89 85.1787 10.604 84.4087 10.032 83.866C9.46 83.3087 8.668 83.03 7.656 83.03H3.036V81.094H8.03C9.07133 81.094 9.97333 81.3067 10.736 81.732C11.4987 82.1573 12.0927 82.7513 12.518 83.514C12.9433 84.2767 13.156 85.1713 13.156 86.198C13.156 87.1807 12.9433 88.0607 12.518 88.838C12.0927 89.6153 11.4987 90.224 10.736 90.664C9.97333 91.104 9.07133 91.324 8.03 91.324ZM14.0479 91.61C14.0479 90.51 14.2899 89.5347 14.7739 88.684C15.2579 87.8333 15.9179 87.166 16.7539 86.682C17.6045 86.198 18.5725 85.956 19.6579 85.956C20.7432 85.956 21.7039 86.198 22.5399 86.682C23.3759 87.166 24.0359 87.8333 24.5199 88.684C25.0039 89.5347 25.2459 90.51 25.2459 91.61C25.2459 92.71 25.0039 93.6853 24.5199 94.536C24.0359 95.3867 23.3759 96.054 22.5399 96.538C21.7039 97.022 20.7432 97.264 19.6579 97.264C18.5725 97.264 17.6045 97.022 16.7539 96.538C15.9179 96.054 15.2579 95.3867 14.7739 94.536C14.2899 93.6853 14.0479 92.71 14.0479 91.61ZM16.1379 91.61C16.1379 92.358 16.2845 93.018 16.5779 93.59C16.8859 94.162 17.3039 94.6093 17.8319 94.932C18.3599 95.2547 18.9685 95.416 19.6579 95.416C20.3472 95.416 20.9559 95.2547 21.4839 94.932C22.0119 94.6093 22.4225 94.162 22.7159 93.59C23.0239 93.018 23.1779 92.358 23.1779 91.61C23.1779 90.8473 23.0239 90.1873 22.7159 89.63C22.4225 89.058 22.0119 88.6107 21.4839 88.288C20.9559 87.9653 20.3472 87.804 19.6579 87.804C18.9685 87.804 18.3599 87.9653 17.8319 88.288C17.3039 88.6107 16.8859 89.058 16.5779 89.63C16.2845 90.1873 16.1379 90.8473 16.1379 91.61ZM29.6471 97H27.5791V80.808H29.6471V97ZM32.6913 97V86.242H34.7593V97H32.6913ZM33.7033 83.69C33.3366 83.69 33.014 83.558 32.7353 83.294C32.4713 83.0153 32.3393 82.6927 32.3393 82.326C32.3393 81.9447 32.4713 81.622 32.7353 81.358C33.014 81.094 33.3366 80.962 33.7033 80.962C34.0846 80.962 34.4073 81.094 34.6713 81.358C34.9353 81.622 35.0673 81.9447 35.0673 82.326C35.0673 82.6927 34.9353 83.0153 34.6713 83.294C34.4073 83.558 34.0846 83.69 33.7033 83.69ZM36.6176 86.242H42.8216V87.98H36.6176V86.242ZM42.8876 80.896V82.678C42.7556 82.678 42.609 82.678 42.4476 82.678C42.301 82.678 42.1396 82.678 41.9636 82.678C41.289 82.678 40.8343 82.8393 40.5996 83.162C40.3796 83.4847 40.2696 83.9393 40.2696 84.526V97H38.2016V84.526C38.2016 83.646 38.3483 82.9347 38.6416 82.392C38.9496 81.8347 39.353 81.4313 39.8516 81.182C40.365 80.9327 40.9516 80.808 41.6116 80.808C41.817 80.808 42.0296 80.8153 42.2496 80.83C42.4696 80.8447 42.6823 80.8667 42.8876 80.896ZM45.602 86.242L49.386 96.714L48.11 98.474L43.424 86.242H45.602ZM43.71 101.818V100.124H45.096C45.4334 100.124 45.7414 100.087 46.02 100.014C46.2987 99.9553 46.5554 99.816 46.79 99.596C47.0247 99.3907 47.2227 99.0607 47.384 98.606L51.916 86.242H54.05L48.968 99.42C48.6014 100.344 48.1394 101.011 47.582 101.422C47.0247 101.833 46.3354 102.038 45.514 102.038C45.1767 102.038 44.8614 102.016 44.568 101.972C44.2747 101.943 43.9887 101.891 43.71 101.818ZM55.7669 96.802L55.9429 96.758C55.8549 96.846 55.7449 96.912 55.6129 96.956C55.4956 97 55.3489 97.022 55.1729 97.022C54.8209 97.022 54.5056 96.9047 54.2269 96.67C53.9629 96.4207 53.8309 96.0907 53.8309 95.68C53.8309 95.24 53.9629 94.8807 54.2269 94.602C54.5056 94.3087 54.8649 94.162 55.3049 94.162C55.7742 94.162 56.1702 94.338 56.4929 94.69C56.8156 95.042 56.9769 95.526 56.9769 96.142C56.9769 96.67 56.8522 97.154 56.6029 97.594C56.3682 98.0487 56.0456 98.4153 55.6349 98.694C55.2242 98.9873 54.7549 99.1707 54.2269 99.244V98.32C54.6669 98.232 55.0336 98.0487 55.3269 97.77C55.6202 97.506 55.7669 97.1833 55.7669 96.802ZM66.8286 86.242L70.6126 96.714L69.3366 98.474L64.6506 86.242H66.8286ZM64.9366 101.818V100.124H66.3226C66.6599 100.124 66.9679 100.087 67.2466 100.014C67.5253 99.9553 67.7819 99.816 68.0166 99.596C68.2513 99.3907 68.4493 99.0607 68.6106 98.606L73.1426 86.242H75.2766L70.1946 99.42C69.8279 100.344 69.3659 101.011 68.8086 101.422C68.2513 101.833 67.5619 102.038 66.7406 102.038C66.4033 102.038 66.0879 102.016 65.7946 101.972C65.5013 101.943 65.2153 101.891 64.9366 101.818ZM75.794 91.61C75.794 90.51 76.036 89.5347 76.52 88.684C77.004 87.8333 77.664 87.166 78.5 86.682C79.3506 86.198 80.3186 85.956 81.404 85.956C82.4893 85.956 83.45 86.198 84.286 86.682C85.122 87.166 85.782 87.8333 86.266 88.684C86.75 89.5347 86.992 90.51 86.992 91.61C86.992 92.71 86.75 93.6853 86.266 94.536C85.782 95.3867 85.122 96.054 84.286 96.538C83.45 97.022 82.4893 97.264 81.404 97.264C80.3186 97.264 79.3506 97.022 78.5 96.538C77.664 96.054 77.004 95.3867 76.52 94.536C76.036 93.6853 75.794 92.71 75.794 91.61ZM77.884 91.61C77.884 92.358 78.0306 93.018 78.324 93.59C78.632 94.162 79.05 94.6093 79.578 94.932C80.106 95.2547 80.7146 95.416 81.404 95.416C82.0933 95.416 82.702 95.2547 83.23 94.932C83.758 94.6093 84.1686 94.162 84.462 93.59C84.77 93.018 84.924 92.358 84.924 91.61C84.924 90.8473 84.77 90.1873 84.462 89.63C84.1686 89.058 83.758 88.6107 83.23 88.288C82.702 87.9653 82.0933 87.804 81.404 87.804C80.7146 87.804 80.106 87.9653 79.578 88.288C79.05 88.6107 78.632 89.058 78.324 89.63C78.0306 90.1873 77.884 90.8473 77.884 91.61ZM96.4593 86.242H98.5053V97H96.6573L96.4373 95.372C96.1293 95.9293 95.6453 96.384 94.9853 96.736C94.3253 97.088 93.5993 97.264 92.8073 97.264C91.5607 97.264 90.5927 96.8753 89.9033 96.098C89.2287 95.306 88.8913 94.25 88.8913 92.93V86.242H90.9593V92.248C90.9593 93.392 91.1867 94.2133 91.6413 94.712C92.1107 95.196 92.7413 95.438 93.5333 95.438C94.4867 95.438 95.2127 95.1447 95.7113 94.558C96.21 93.9567 96.4593 93.0767 96.4593 91.918V86.242ZM107.666 86.154V88.046H106.742C105.759 88.046 104.982 88.332 104.41 88.904C103.852 89.4613 103.574 90.2607 103.574 91.302V97H101.506V86.264H103.442L103.618 88.42H103.42C103.566 87.716 103.918 87.144 104.476 86.704C105.033 86.2493 105.73 86.022 106.566 86.022C106.756 86.022 106.932 86.0367 107.094 86.066C107.27 86.0807 107.46 86.11 107.666 86.154ZM117.733 97H115.665V80.808H117.733V97ZM120.073 91.61C120.073 90.51 120.315 89.5347 120.799 88.684C121.283 87.8333 121.943 87.166 122.779 86.682C123.63 86.198 124.598 85.956 125.683 85.956C126.769 85.956 127.729 86.198 128.565 86.682C129.401 87.166 130.061 87.8333 130.545 88.684C131.029 89.5347 131.271 90.51 131.271 91.61C131.271 92.71 131.029 93.6853 130.545 94.536C130.061 95.3867 129.401 96.054 128.565 96.538C127.729 97.022 126.769 97.264 125.683 97.264C124.598 97.264 123.63 97.022 122.779 96.538C121.943 96.054 121.283 95.3867 120.799 94.536C120.315 93.6853 120.073 92.71 120.073 91.61ZM122.163 91.61C122.163 92.358 122.31 93.018 122.603 93.59C122.911 94.162 123.329 94.6093 123.857 94.932C124.385 95.2547 124.994 95.416 125.683 95.416C126.373 95.416 126.981 95.2547 127.509 94.932C128.037 94.6093 128.448 94.162 128.741 93.59C129.049 93.018 129.203 92.358 129.203 91.61C129.203 90.8473 129.049 90.1873 128.741 89.63C128.448 89.058 128.037 88.6107 127.509 88.288C126.981 87.9653 126.373 87.804 125.683 87.804C124.994 87.804 124.385 87.9653 123.857 88.288C123.329 88.6107 122.911 89.058 122.603 89.63C122.31 90.1873 122.163 90.8473 122.163 91.61ZM135.628 97H133.56V86.242H135.43L135.65 87.892C135.988 87.276 136.472 86.7993 137.102 86.462C137.748 86.11 138.452 85.934 139.214 85.934C140.622 85.934 141.664 86.3373 142.338 87.144C143.013 87.9507 143.35 89.0433 143.35 90.422V97H141.282V90.884C141.282 89.7987 141.048 89.0213 140.578 88.552C140.109 88.068 139.478 87.826 138.686 87.826C137.718 87.826 136.963 88.1413 136.42 88.772C135.892 89.4027 135.628 90.246 135.628 91.302V97ZM145.533 91.346C145.533 90.334 145.738 89.4247 146.149 88.618C146.559 87.7967 147.146 87.144 147.909 86.66C148.671 86.176 149.573 85.934 150.615 85.934C151.583 85.934 152.411 86.1687 153.101 86.638C153.79 87.0927 154.281 87.7307 154.575 88.552L154.311 88.838L154.531 86.242H156.379V96.56C156.379 97.6893 156.159 98.6647 155.719 99.486C155.279 100.322 154.655 100.967 153.849 101.422C153.042 101.877 152.089 102.104 150.989 102.104C149.522 102.104 148.319 101.715 147.381 100.938C146.442 100.161 145.87 99.09 145.665 97.726H147.733C147.865 98.518 148.217 99.134 148.789 99.574C149.361 100.014 150.094 100.234 150.989 100.234C152.001 100.234 152.807 99.926 153.409 99.31C154.025 98.7087 154.333 97.8947 154.333 96.868V93.832L154.597 94.118C154.318 94.9247 153.812 95.5627 153.079 96.032C152.345 96.4867 151.495 96.714 150.527 96.714C149.5 96.714 148.613 96.4793 147.865 96.01C147.117 95.526 146.537 94.8807 146.127 94.074C145.731 93.2673 145.533 92.358 145.533 91.346ZM147.601 91.302C147.601 91.9767 147.733 92.5853 147.997 93.128C148.275 93.6707 148.657 94.1033 149.141 94.426C149.639 94.7487 150.219 94.91 150.879 94.91C151.583 94.91 152.184 94.756 152.683 94.448C153.181 94.14 153.563 93.7147 153.827 93.172C154.105 92.6293 154.245 92.006 154.245 91.302C154.245 90.598 154.113 89.982 153.849 89.454C153.585 88.926 153.203 88.508 152.705 88.2C152.206 87.892 151.605 87.738 150.901 87.738C150.211 87.738 149.617 87.8993 149.119 88.222C148.635 88.5447 148.261 88.9773 147.997 89.52C147.733 90.048 147.601 90.642 147.601 91.302ZM164.235 86.242H170.527V87.98H164.235V86.242ZM168.415 97H166.347V82.876H168.415V97ZM176.917 97.264C175.876 97.264 174.952 97.0293 174.145 96.56C173.339 96.076 172.708 95.416 172.253 94.58C171.799 93.7293 171.571 92.7467 171.571 91.632C171.571 90.5027 171.791 89.5127 172.231 88.662C172.686 87.8113 173.302 87.144 174.079 86.66C174.871 86.176 175.788 85.934 176.829 85.934C177.856 85.934 178.743 86.154 179.491 86.594C180.254 87.034 180.841 87.65 181.251 88.442C181.677 89.234 181.889 90.1653 181.889 91.236V92.006L172.671 92.028L172.715 90.642H179.821C179.821 89.7473 179.55 89.0287 179.007 88.486C178.465 87.9433 177.739 87.672 176.829 87.672C176.14 87.672 175.546 87.826 175.047 88.134C174.563 88.4273 174.189 88.8673 173.925 89.454C173.676 90.026 173.551 90.7153 173.551 91.522C173.551 92.8127 173.845 93.81 174.431 94.514C175.018 95.2033 175.861 95.548 176.961 95.548C177.768 95.548 178.428 95.3867 178.941 95.064C179.455 94.7413 179.799 94.272 179.975 93.656H181.911C181.647 94.8 181.083 95.6873 180.217 96.318C179.352 96.9487 178.252 97.264 176.917 97.264ZM190.359 86.154V88.046H189.435C188.452 88.046 187.675 88.332 187.103 88.904C186.546 89.4613 186.267 90.2607 186.267 91.302V97H184.199V86.264H186.135L186.311 88.42H186.113C186.26 87.716 186.612 87.144 187.169 86.704C187.726 86.2493 188.423 86.022 189.259 86.022C189.45 86.022 189.626 86.0367 189.787 86.066C189.963 86.0807 190.154 86.11 190.359 86.154ZM194.367 97H192.299V86.242H194.147L194.433 88.222L194.169 88.046C194.389 87.4447 194.792 86.946 195.379 86.55C195.98 86.1393 196.706 85.934 197.557 85.934C198.51 85.934 199.302 86.1907 199.933 86.704C200.563 87.2173 200.974 87.8993 201.165 88.75H200.791C200.937 87.8993 201.341 87.2173 202.001 86.704C202.661 86.1907 203.475 85.934 204.443 85.934C205.675 85.934 206.643 86.2933 207.347 87.012C208.051 87.7307 208.403 88.7133 208.403 89.96V97H206.379V90.466C206.379 89.6153 206.159 88.9627 205.719 88.508C205.293 88.0387 204.714 87.804 203.981 87.804C203.467 87.804 203.013 87.9213 202.617 88.156C202.235 88.376 201.935 88.6987 201.715 89.124C201.495 89.5493 201.385 90.048 201.385 90.62V97H199.339V90.444C199.339 89.5933 199.126 88.948 198.701 88.508C198.275 88.0533 197.696 87.826 196.963 87.826C196.449 87.826 195.995 87.9433 195.599 88.178C195.217 88.398 194.917 88.7207 194.697 89.146C194.477 89.5567 194.367 90.048 194.367 90.62V97ZM217.285 101.818V86.242H219.155L219.309 88.178C219.661 87.43 220.182 86.8727 220.871 86.506C221.575 86.1247 222.352 85.934 223.203 85.934C224.23 85.934 225.117 86.176 225.865 86.66C226.613 87.1293 227.185 87.7893 227.581 88.64C227.992 89.476 228.197 90.444 228.197 91.544C228.197 92.644 227.999 93.6267 227.603 94.492C227.222 95.3573 226.657 96.0393 225.909 96.538C225.176 97.0367 224.274 97.286 223.203 97.286C222.338 97.286 221.568 97.11 220.893 96.758C220.218 96.406 219.705 95.9 219.353 95.24V101.818H217.285ZM219.375 91.632C219.375 92.3507 219.507 93.0033 219.771 93.59C220.05 94.162 220.438 94.6093 220.937 94.932C221.45 95.2547 222.059 95.416 222.763 95.416C223.467 95.416 224.068 95.2547 224.567 94.932C225.066 94.5947 225.447 94.14 225.711 93.568C225.99 92.996 226.129 92.3507 226.129 91.632C226.129 90.884 225.99 90.224 225.711 89.652C225.447 89.08 225.066 88.6327 224.567 88.31C224.068 87.9873 223.467 87.826 222.763 87.826C222.059 87.826 221.45 87.9873 220.937 88.31C220.438 88.6327 220.05 89.08 219.771 89.652C219.507 90.224 219.375 90.884 219.375 91.632ZM233.622 97.264C232.478 97.264 231.576 96.9633 230.916 96.362C230.271 95.7607 229.948 94.976 229.948 94.008C229.948 93.0253 230.3 92.2407 231.004 91.654C231.708 91.0527 232.691 90.7007 233.952 90.598L237.34 90.334V90.026C237.34 89.4247 237.23 88.948 237.01 88.596C236.79 88.2293 236.49 87.9727 236.108 87.826C235.727 87.6647 235.294 87.584 234.81 87.584C233.945 87.584 233.27 87.7673 232.786 88.134C232.317 88.486 232.082 88.992 232.082 89.652H230.278C230.278 88.904 230.469 88.2513 230.85 87.694C231.232 87.1367 231.767 86.704 232.456 86.396C233.16 86.088 233.974 85.934 234.898 85.934C235.793 85.934 236.57 86.0953 237.23 86.418C237.905 86.726 238.426 87.2027 238.792 87.848C239.174 88.4787 239.364 89.278 239.364 90.246V97H237.604L237.384 95.262C237.106 95.878 236.622 96.3693 235.932 96.736C235.258 97.088 234.488 97.264 233.622 97.264ZM234.216 95.658C235.199 95.658 235.969 95.3647 236.526 94.778C237.084 94.1767 237.362 93.37 237.362 92.358V91.786L234.612 92.006C233.703 92.094 233.043 92.3067 232.632 92.644C232.236 92.9813 232.038 93.414 232.038 93.942C232.038 94.514 232.229 94.9467 232.61 95.24C233.006 95.5187 233.542 95.658 234.216 95.658ZM248.388 86.154V88.046H247.464C246.482 88.046 245.704 88.332 245.132 88.904C244.575 89.4613 244.296 90.2607 244.296 91.302V97H242.228V86.264H244.164L244.34 88.42H244.142C244.289 87.716 244.641 87.144 245.198 86.704C245.756 86.2493 246.452 86.022 247.288 86.022C247.479 86.022 247.655 86.0367 247.816 86.066C247.992 86.0807 248.183 86.11 248.388 86.154ZM249.614 86.242H255.906V87.98H249.614V86.242ZM253.794 97H251.726V82.876H253.794V97ZM259.83 97H257.762V86.242H259.632L259.852 87.892C260.189 87.276 260.673 86.7993 261.304 86.462C261.949 86.11 262.653 85.934 263.416 85.934C264.824 85.934 265.865 86.3373 266.54 87.144C267.214 87.9507 267.552 89.0433 267.552 90.422V97H265.484V90.884C265.484 89.7987 265.249 89.0213 264.78 88.552C264.31 88.068 263.68 87.826 262.888 87.826C261.92 87.826 261.164 88.1413 260.622 88.772C260.094 89.4027 259.83 90.246 259.83 91.302V97ZM275.058 97.264C274.017 97.264 273.093 97.0293 272.286 96.56C271.479 96.076 270.849 95.416 270.394 94.58C269.939 93.7293 269.712 92.7467 269.712 91.632C269.712 90.5027 269.932 89.5127 270.372 88.662C270.827 87.8113 271.443 87.144 272.22 86.66C273.012 86.176 273.929 85.934 274.97 85.934C275.997 85.934 276.884 86.154 277.632 86.594C278.395 87.034 278.981 87.65 279.392 88.442C279.817 89.234 280.03 90.1653 280.03 91.236V92.006L270.812 92.028L270.856 90.642H277.962C277.962 89.7473 277.691 89.0287 277.148 88.486C276.605 87.9433 275.879 87.672 274.97 87.672C274.281 87.672 273.687 87.826 273.188 88.134C272.704 88.4273 272.33 88.8673 272.066 89.454C271.817 90.026 271.692 90.7153 271.692 91.522C271.692 92.8127 271.985 93.81 272.572 94.514C273.159 95.2033 274.002 95.548 275.102 95.548C275.909 95.548 276.569 95.3867 277.082 95.064C277.595 94.7413 277.94 94.272 278.116 93.656H280.052C279.788 94.8 279.223 95.6873 278.358 96.318C277.493 96.9487 276.393 97.264 275.058 97.264ZM288.5 86.154V88.046H287.576C286.593 88.046 285.816 88.332 285.244 88.904C284.686 89.4613 284.408 90.2607 284.408 91.302V97H282.34V86.264H284.276L284.452 88.42H284.254C284.4 87.716 284.752 87.144 285.31 86.704C285.867 86.2493 286.564 86.022 287.4 86.022C287.59 86.022 287.766 86.0367 287.928 86.066C288.104 86.0807 288.294 86.11 288.5 86.154ZM290.239 97.264C289.814 97.264 289.44 97.1173 289.117 96.824C288.809 96.516 288.655 96.1493 288.655 95.724C288.655 95.284 288.809 94.9173 289.117 94.624C289.44 94.316 289.814 94.162 290.239 94.162C290.664 94.162 291.031 94.316 291.339 94.624C291.647 94.9173 291.801 95.284 291.801 95.724C291.801 96.1493 291.647 96.516 291.339 96.824C291.031 97.1173 290.664 97.264 290.239 97.264Z" fill="#120E0E" fill-opacity="0.63"/>
<path d="M10.2164 0L48.1924 5.93185e-05L58.1138 15.7278H18.4358L10.2164 0Z" fill="#2C2C2C"/>
<path d="M39.9615 17.1886L39.9606 17.1901L58.1138 17.1906L39.9615 17.1886Z" fill="#2C2C2C"/>
<path d="M48.1924 32.9115L58.1138 17.1906L39.9615 17.1886L30.3389 32.9115H48.1924Z" fill="#2C2C2C"/>
<path d="M9.65139 35.3508H27.243L18.4358 51.0807H0L9.65139 35.3508Z" fill="#2C2C2C"/>
<path d="M112.772 51.1861V21.9756L121.551 27.2335V51.1861H112.772Z" fill="#2C2C2C"/>
<path d="M117.06 11.3134H125.769L121.414 18.7654H112.706L117.06 11.3134Z" fill="#2C2C2C"/>
<path d="M131.742 51.1183H139.933V29.2105H147.267V21.9079H139.933V9.19979H147.267L139.933 1.96461H131.742V21.9079L124.408 29.2105H131.742V51.1183Z" fill="#2C2C2C"/>
<path d="M92.8598 51.1183V7.30262L102.793 0V40.7533H106.341V51.1183H92.8598Z" fill="#2C2C2C"/>
<path d="M171.856 51.0922V73L180.841 65.6974V37.2337H171.856V43.7895H157.188V21.8817L149.854 29.1843V51.0922H171.856Z" fill="#2C2C2C"/>
<path d="M171.856 37.2337L180.841 32.2883V21.8817L171.856 27.1396V37.2337Z" fill="#2C2C2C"/>
<path d="M57.5776 43.7772L64.9116 51.0798H79.5797L86.9137 43.7772V37.2598H57.5776V43.7772Z" fill="#2C2C2C"/>
<path d="M57.5776 35.7694V29.172L64.9116 21.8694H79.5797L86.9137 29.172V35.7694H57.5776Z" fill="#2C2C2C"/>
</svg>
