<svg width="570" height="401" viewBox="0 0 570 401" fill="none" xmlns="http://www.w3.org/2000/svg">
<g clip-path="url(#clip0_1_400)">
<rect x="-0.000320435" y="-13.8348" width="576.226" height="421.966" rx="26.2864" fill="white"/>
<g filter="url(#filter0_f_1_400)">
<circle cx="100.649" cy="11.414" r="129.011" fill="#C955FF" fill-opacity="0.39"/>
</g>
<g filter="url(#filter1_f_1_400)">
<circle cx="515.698" cy="293.647" r="78.5134" fill="#FF556F" fill-opacity="0.56"/>
</g>
<g filter="url(#filter2_f_1_400)">
<circle cx="41.5576" cy="337.558" r="70.5583" fill="#5E77FD" fill-opacity="0.66"/>
</g>
<g filter="url(#filter3_d_1_400)">
<path d="M100.762 301.029C100.762 301.029 216.11 301.186 245.902 297.67C275.694 294.154 281.923 294.535 298.102 278.621C394.296 184.005 388.652 202.89 428.883 184.005C478.68 160.63 513.499 156 513.499 156" stroke="#5570FF" stroke-width="3.05557" stroke-linecap="round"/>
</g>
<path d="M222.809 323.697C222.809 323.255 222.92 322.867 223.141 322.532C223.362 322.197 223.672 321.936 224.071 321.751C224.478 321.566 224.945 321.473 225.472 321.473C225.964 321.473 226.392 321.562 226.756 321.74C227.126 321.911 227.415 322.157 227.622 322.478C227.836 322.799 227.957 323.184 227.985 323.633H226.927C226.898 323.248 226.756 322.949 226.499 322.735C226.242 322.521 225.896 322.414 225.461 322.414C224.977 322.414 224.588 322.528 224.296 322.756C224.003 322.977 223.857 323.28 223.857 323.665C223.857 323.979 223.946 324.232 224.125 324.425C224.303 324.61 224.574 324.745 224.937 324.831L226.21 325.13C226.845 325.273 227.319 325.519 227.632 325.868C227.953 326.211 228.114 326.653 228.114 327.194C228.114 327.658 228 328.061 227.771 328.403C227.55 328.745 227.233 329.009 226.82 329.194C226.413 329.38 225.936 329.472 225.387 329.472C224.866 329.472 224.406 329.387 224.007 329.216C223.615 329.037 223.305 328.788 223.077 328.467C222.856 328.139 222.731 327.758 222.702 327.323H223.772C223.779 327.693 223.929 327.989 224.221 328.21C224.513 328.424 224.902 328.531 225.387 328.531C225.9 328.531 226.306 328.417 226.606 328.189C226.912 327.961 227.066 327.658 227.066 327.28C227.066 326.973 226.98 326.724 226.809 326.531C226.638 326.339 226.367 326.2 225.996 326.114L224.724 325.826C224.096 325.683 223.618 325.433 223.29 325.077C222.97 324.713 222.809 324.253 222.809 323.697ZM231.516 329.472C231.01 329.472 230.561 329.358 230.169 329.13C229.777 328.895 229.47 328.574 229.249 328.168C229.028 327.754 228.917 327.276 228.917 326.735C228.917 326.186 229.024 325.704 229.238 325.291C229.459 324.877 229.759 324.553 230.137 324.318C230.522 324.082 230.967 323.965 231.473 323.965C231.972 323.965 232.404 324.072 232.767 324.285C233.138 324.499 233.423 324.799 233.623 325.184C233.83 325.569 233.933 326.022 233.933 326.542V326.916L229.452 326.927L229.473 326.253H232.928C232.928 325.818 232.796 325.469 232.532 325.205C232.268 324.941 231.915 324.81 231.473 324.81C231.138 324.81 230.85 324.884 230.607 325.034C230.372 325.177 230.19 325.391 230.062 325.676C229.94 325.954 229.88 326.289 229.88 326.681C229.88 327.308 230.022 327.793 230.308 328.136C230.593 328.471 231.003 328.638 231.538 328.638C231.93 328.638 232.25 328.56 232.5 328.403C232.75 328.246 232.917 328.018 233.003 327.718H233.944C233.815 328.275 233.541 328.706 233.12 329.012C232.7 329.319 232.165 329.472 231.516 329.472ZM235.056 331.686V324.114H235.965L236.04 325.055C236.211 324.692 236.464 324.421 236.799 324.243C237.141 324.057 237.519 323.965 237.933 323.965C238.432 323.965 238.863 324.082 239.227 324.318C239.59 324.546 239.868 324.867 240.061 325.28C240.261 325.686 240.36 326.157 240.36 326.692C240.36 327.226 240.264 327.704 240.072 328.125C239.886 328.545 239.612 328.877 239.248 329.119C238.892 329.362 238.453 329.483 237.933 329.483C237.512 329.483 237.138 329.397 236.81 329.226C236.482 329.055 236.232 328.809 236.061 328.488V331.686H235.056ZM236.072 326.735C236.072 327.084 236.136 327.401 236.264 327.686C236.4 327.964 236.589 328.182 236.831 328.339C237.081 328.496 237.377 328.574 237.719 328.574C238.061 328.574 238.353 328.496 238.596 328.339C238.838 328.175 239.024 327.954 239.152 327.676C239.287 327.398 239.355 327.084 239.355 326.735C239.355 326.371 239.287 326.05 239.152 325.772C239.024 325.494 238.838 325.277 238.596 325.12C238.353 324.963 238.061 324.884 237.719 324.884C237.377 324.884 237.081 324.963 236.831 325.12C236.589 325.277 236.4 325.494 236.264 325.772C236.136 326.05 236.072 326.371 236.072 326.735ZM249.376 329.333L244.157 329.344V328.542L246.649 326.392C246.963 326.129 247.223 325.89 247.43 325.676C247.637 325.462 247.801 325.266 247.922 325.088C248.043 324.902 248.129 324.72 248.179 324.542C248.229 324.364 248.253 324.171 248.253 323.965C248.253 323.48 248.122 323.102 247.858 322.831C247.601 322.553 247.237 322.414 246.767 322.414C246.289 322.414 245.904 322.578 245.612 322.906C245.327 323.227 245.181 323.662 245.173 324.211H244.125C244.14 323.662 244.257 323.18 244.478 322.767C244.699 322.353 245.006 322.036 245.398 321.815C245.797 321.587 246.257 321.473 246.778 321.473C247.298 321.473 247.747 321.573 248.125 321.772C248.503 321.972 248.795 322.254 249.002 322.617C249.216 322.974 249.323 323.401 249.323 323.9C249.323 324.171 249.287 324.432 249.216 324.681C249.145 324.924 249.031 325.166 248.874 325.408C248.724 325.644 248.528 325.89 248.286 326.146C248.043 326.396 247.751 326.67 247.409 326.97L245.387 328.724L245.034 328.36H249.376V329.333ZM250.341 325.483C250.341 324.685 250.469 323.986 250.726 323.387C250.99 322.781 251.361 322.311 251.838 321.975C252.316 321.633 252.879 321.462 253.528 321.462C254.177 321.462 254.736 321.633 255.207 321.975C255.685 322.311 256.052 322.781 256.309 323.387C256.572 323.986 256.704 324.685 256.704 325.483C256.704 326.289 256.576 326.991 256.319 327.59C256.07 328.189 255.706 328.656 255.228 328.991C254.758 329.319 254.191 329.483 253.528 329.483C252.865 329.483 252.295 329.319 251.817 328.991C251.339 328.656 250.972 328.189 250.715 327.59C250.466 326.991 250.341 326.289 250.341 325.483ZM251.378 325.483C251.378 326.118 251.464 326.667 251.635 327.13C251.806 327.587 252.049 327.936 252.362 328.178C252.683 328.421 253.072 328.542 253.528 328.542C253.977 328.542 254.362 328.421 254.683 328.178C255.004 327.936 255.246 327.587 255.41 327.13C255.581 326.667 255.667 326.118 255.667 325.483C255.667 324.842 255.581 324.293 255.41 323.836C255.246 323.373 255.004 323.02 254.683 322.778C254.362 322.528 253.977 322.403 253.528 322.403C253.072 322.403 252.683 322.528 252.362 322.778C252.049 323.02 251.806 323.373 251.635 323.836C251.464 324.293 251.378 324.842 251.378 325.483ZM262.943 329.333L257.724 329.344V328.542L260.216 326.392C260.53 326.129 260.79 325.89 260.997 325.676C261.203 325.462 261.367 325.266 261.488 325.088C261.61 324.902 261.695 324.72 261.745 324.542C261.795 324.364 261.82 324.171 261.82 323.965C261.82 323.48 261.688 323.102 261.424 322.831C261.168 322.553 260.804 322.414 260.333 322.414C259.856 322.414 259.471 322.578 259.178 322.906C258.893 323.227 258.747 323.662 258.74 324.211H257.692C257.706 323.662 257.824 323.18 258.045 322.767C258.266 322.353 258.572 322.036 258.965 321.815C259.364 321.587 259.824 321.473 260.344 321.473C260.865 321.473 261.314 321.573 261.692 321.772C262.07 321.972 262.362 322.254 262.569 322.617C262.783 322.974 262.889 323.401 262.889 323.9C262.889 324.171 262.854 324.432 262.783 324.681C262.711 324.924 262.597 325.166 262.44 325.408C262.291 325.644 262.095 325.89 261.852 326.146C261.61 326.396 261.317 326.67 260.975 326.97L258.954 328.724L258.601 328.36H262.943V329.333ZM269.136 329.333L263.917 329.344V328.542L266.409 326.392C266.723 326.129 266.983 325.89 267.19 325.676C267.397 325.462 267.56 325.266 267.682 325.088C267.803 324.902 267.888 324.72 267.938 324.542C267.988 324.364 268.013 324.171 268.013 323.965C268.013 323.48 267.881 323.102 267.618 322.831C267.361 322.553 266.997 322.414 266.527 322.414C266.049 322.414 265.664 322.578 265.372 322.906C265.086 323.227 264.94 323.662 264.933 324.211H263.885C263.899 323.662 264.017 323.18 264.238 322.767C264.459 322.353 264.766 322.036 265.158 321.815C265.557 321.587 266.017 321.473 266.537 321.473C267.058 321.473 267.507 321.573 267.885 321.772C268.263 321.972 268.555 322.254 268.762 322.617C268.976 322.974 269.083 323.401 269.083 323.9C269.083 324.171 269.047 324.432 268.976 324.681C268.904 324.924 268.79 325.166 268.634 325.408C268.484 325.644 268.288 325.89 268.045 326.146C267.803 326.396 267.511 326.67 267.168 326.97L265.147 328.724L264.794 328.36H269.136V329.333Z" fill="black"/>
<path d="M100.336 329.344H99.2451L102.068 321.612H103.234L106.068 329.344H104.967L104.272 327.419H101.02L100.336 329.344ZM102.518 323.28L101.341 326.51H103.961L102.774 323.28C102.753 323.202 102.728 323.123 102.699 323.045C102.671 322.959 102.653 322.888 102.646 322.831C102.632 322.888 102.614 322.959 102.592 323.045C102.571 323.123 102.546 323.202 102.518 323.28ZM110.383 324.114H111.378V329.344H110.479L110.372 328.553C110.223 328.824 109.987 329.045 109.666 329.216C109.346 329.387 108.993 329.472 108.608 329.472C108.002 329.472 107.531 329.283 107.196 328.906C106.868 328.521 106.704 328.007 106.704 327.366V324.114H107.709V327.034C107.709 327.59 107.82 327.989 108.041 328.232C108.269 328.467 108.576 328.585 108.961 328.585C109.424 328.585 109.777 328.442 110.019 328.157C110.262 327.865 110.383 327.437 110.383 326.874V324.114ZM112.505 326.596C112.505 326.104 112.604 325.662 112.804 325.269C113.004 324.87 113.289 324.553 113.66 324.318C114.03 324.082 114.469 323.965 114.975 323.965C115.446 323.965 115.848 324.079 116.184 324.307C116.519 324.528 116.757 324.838 116.9 325.237L116.772 325.376L116.879 324.114H117.777V329.13C117.777 329.679 117.67 330.153 117.456 330.552C117.242 330.959 116.939 331.273 116.547 331.494C116.155 331.715 115.692 331.825 115.157 331.825C114.444 331.825 113.859 331.636 113.403 331.258C112.947 330.88 112.669 330.36 112.569 329.697H113.574C113.638 330.082 113.809 330.381 114.087 330.595C114.365 330.809 114.722 330.916 115.157 330.916C115.649 330.916 116.041 330.766 116.333 330.467C116.633 330.175 116.782 329.779 116.782 329.28V327.804L116.911 327.943C116.775 328.335 116.529 328.645 116.173 328.873C115.816 329.094 115.403 329.205 114.932 329.205C114.433 329.205 114.002 329.091 113.638 328.863C113.275 328.627 112.993 328.314 112.793 327.922C112.601 327.529 112.505 327.087 112.505 326.596ZM113.51 326.574C113.51 326.902 113.574 327.198 113.702 327.462C113.838 327.726 114.023 327.936 114.258 328.093C114.501 328.25 114.783 328.328 115.103 328.328C115.446 328.328 115.738 328.253 115.98 328.103C116.223 327.954 116.408 327.747 116.536 327.483C116.672 327.219 116.74 326.916 116.74 326.574C116.74 326.232 116.675 325.932 116.547 325.676C116.419 325.419 116.233 325.216 115.991 325.066C115.749 324.916 115.456 324.842 115.114 324.842C114.779 324.842 114.49 324.92 114.248 325.077C114.013 325.234 113.831 325.444 113.702 325.708C113.574 325.965 113.51 326.253 113.51 326.574ZM127.136 329.333L121.917 329.344V328.542L124.409 326.392C124.722 326.129 124.983 325.89 125.189 325.676C125.396 325.462 125.56 325.266 125.681 325.088C125.802 324.902 125.888 324.72 125.938 324.542C125.988 324.364 126.013 324.171 126.013 323.965C126.013 323.48 125.881 323.102 125.617 322.831C125.36 322.553 124.997 322.414 124.526 322.414C124.049 322.414 123.664 322.578 123.371 322.906C123.086 323.227 122.94 323.662 122.933 324.211H121.885C121.899 323.662 122.017 323.18 122.238 322.767C122.459 322.353 122.765 322.036 123.157 321.815C123.557 321.587 124.016 321.473 124.537 321.473C125.057 321.473 125.507 321.573 125.884 321.772C126.262 321.972 126.555 322.254 126.761 322.617C126.975 322.974 127.082 323.401 127.082 323.9C127.082 324.171 127.047 324.432 126.975 324.681C126.904 324.924 126.79 325.166 126.633 325.408C126.483 325.644 126.287 325.89 126.045 326.146C125.802 326.396 125.51 326.67 125.168 326.97L123.147 328.724L122.794 328.36H127.136V329.333ZM128.1 325.483C128.1 324.685 128.229 323.986 128.485 323.387C128.749 322.781 129.12 322.311 129.598 321.975C130.075 321.633 130.638 321.462 131.287 321.462C131.936 321.462 132.496 321.633 132.966 321.975C133.444 322.311 133.811 322.781 134.068 323.387C134.332 323.986 134.464 324.685 134.464 325.483C134.464 326.289 134.335 326.991 134.079 327.59C133.829 328.189 133.465 328.656 132.988 328.991C132.517 329.319 131.95 329.483 131.287 329.483C130.624 329.483 130.054 329.319 129.576 328.991C129.098 328.656 128.731 328.189 128.475 327.59C128.225 326.991 128.1 326.289 128.1 325.483ZM129.138 325.483C129.138 326.118 129.223 326.667 129.394 327.13C129.565 327.587 129.808 327.936 130.122 328.178C130.442 328.421 130.831 328.542 131.287 328.542C131.736 328.542 132.121 328.421 132.442 328.178C132.763 327.936 133.005 327.587 133.169 327.13C133.341 326.667 133.426 326.118 133.426 325.483C133.426 324.842 133.341 324.293 133.169 323.836C133.005 323.373 132.763 323.02 132.442 322.778C132.121 322.528 131.736 322.403 131.287 322.403C130.831 322.403 130.442 322.528 130.122 322.778C129.808 323.02 129.565 323.373 129.394 323.836C129.223 324.293 129.138 324.842 129.138 325.483ZM140.702 329.333L135.483 329.344V328.542L137.975 326.392C138.289 326.129 138.549 325.89 138.756 325.676C138.963 325.462 139.127 325.266 139.248 325.088C139.369 324.902 139.455 324.72 139.504 324.542C139.554 324.364 139.579 324.171 139.579 323.965C139.579 323.48 139.447 323.102 139.184 322.831C138.927 322.553 138.563 322.414 138.093 322.414C137.615 322.414 137.23 322.578 136.938 322.906C136.653 323.227 136.506 323.662 136.499 324.211H135.451C135.465 323.662 135.583 323.18 135.804 322.767C136.025 322.353 136.332 322.036 136.724 321.815C137.123 321.587 137.583 321.473 138.103 321.473C138.624 321.473 139.073 321.573 139.451 321.772C139.829 321.972 140.121 322.254 140.328 322.617C140.542 322.974 140.649 323.401 140.649 323.9C140.649 324.171 140.613 324.432 140.542 324.681C140.471 324.924 140.356 325.166 140.2 325.408C140.05 325.644 139.854 325.89 139.611 326.146C139.369 326.396 139.077 326.67 138.734 326.97L136.713 328.724L136.36 328.36H140.702V329.333ZM146.895 329.333L141.677 329.344V328.542L144.168 326.392C144.482 326.129 144.742 325.89 144.949 325.676C145.156 325.462 145.32 325.266 145.441 325.088C145.562 324.902 145.648 324.72 145.698 324.542C145.748 324.364 145.773 324.171 145.773 323.965C145.773 323.48 145.641 323.102 145.377 322.831C145.12 322.553 144.757 322.414 144.286 322.414C143.808 322.414 143.423 322.578 143.131 322.906C142.846 323.227 142.7 323.662 142.693 324.211H141.644C141.659 323.662 141.776 323.18 141.997 322.767C142.218 322.353 142.525 322.036 142.917 321.815C143.316 321.587 143.776 321.473 144.297 321.473C144.817 321.473 145.266 321.573 145.644 321.772C146.022 321.972 146.314 322.254 146.521 322.617C146.735 322.974 146.842 323.401 146.842 323.9C146.842 324.171 146.806 324.432 146.735 324.681C146.664 324.924 146.55 325.166 146.393 325.408C146.243 325.644 146.047 325.89 145.805 326.146C145.562 326.396 145.27 326.67 144.928 326.97L142.906 328.724L142.553 328.36H146.895V329.333Z" fill="black"/>
<path d="M353.447 325.473C353.447 326.257 353.286 326.952 352.966 327.558C352.652 328.157 352.213 328.627 351.65 328.97C351.094 329.305 350.449 329.472 349.715 329.472C348.994 329.472 348.353 329.305 347.789 328.97C347.233 328.627 346.798 328.157 346.485 327.558C346.171 326.959 346.014 326.264 346.014 325.473C346.014 324.688 346.171 323.997 346.485 323.398C346.806 322.799 347.244 322.328 347.8 321.986C348.356 321.644 348.998 321.473 349.725 321.473C350.46 321.473 351.105 321.644 351.661 321.986C352.217 322.328 352.652 322.799 352.966 323.398C353.286 323.997 353.447 324.688 353.447 325.473ZM352.345 325.473C352.345 324.874 352.235 324.35 352.014 323.9C351.8 323.451 351.497 323.106 351.105 322.863C350.713 322.614 350.253 322.489 349.725 322.489C349.205 322.489 348.748 322.614 348.356 322.863C347.964 323.106 347.658 323.451 347.437 323.9C347.223 324.35 347.116 324.874 347.116 325.473C347.116 326.071 347.223 326.596 347.437 327.045C347.658 327.494 347.964 327.843 348.356 328.093C348.748 328.342 349.205 328.467 349.725 328.467C350.253 328.467 350.713 328.342 351.105 328.093C351.497 327.836 351.8 327.483 352.014 327.034C352.235 326.585 352.345 326.064 352.345 325.473ZM354.274 326.735C354.274 326.186 354.381 325.704 354.595 325.291C354.816 324.877 355.119 324.553 355.504 324.318C355.889 324.082 356.335 323.965 356.841 323.965C357.497 323.965 358.042 324.139 358.477 324.489C358.912 324.838 359.172 325.301 359.258 325.879H358.252C358.167 325.544 357.999 325.291 357.75 325.12C357.5 324.949 357.208 324.863 356.873 324.863C356.559 324.863 356.281 324.941 356.039 325.098C355.796 325.248 355.607 325.462 355.472 325.74C355.336 326.018 355.269 326.346 355.269 326.724C355.269 327.102 355.333 327.43 355.461 327.708C355.589 327.979 355.771 328.193 356.007 328.349C356.242 328.499 356.516 328.574 356.83 328.574C357.187 328.574 357.493 328.485 357.75 328.307C358.006 328.128 358.178 327.886 358.263 327.579H359.268C359.204 327.957 359.058 328.289 358.83 328.574C358.609 328.852 358.324 329.073 357.974 329.237C357.632 329.394 357.251 329.472 356.83 329.472C356.317 329.472 355.868 329.358 355.483 329.13C355.105 328.902 354.809 328.585 354.595 328.178C354.381 327.765 354.274 327.284 354.274 326.735ZM359.773 324.114H362.832V324.959H359.773V324.114ZM361.805 329.344H360.8V322.478H361.805V329.344ZM371.642 329.333L366.423 329.344V328.542L368.915 326.392C369.228 326.129 369.489 325.89 369.695 325.676C369.902 325.462 370.066 325.266 370.187 325.088C370.308 324.902 370.394 324.72 370.444 324.542C370.494 324.364 370.519 324.171 370.519 323.965C370.519 323.48 370.387 323.102 370.123 322.831C369.866 322.553 369.503 322.414 369.032 322.414C368.555 322.414 368.17 322.578 367.877 322.906C367.592 323.227 367.446 323.662 367.439 324.211H366.391C366.405 323.662 366.523 323.18 366.744 322.767C366.965 322.353 367.271 322.036 367.663 321.815C368.063 321.587 368.522 321.473 369.043 321.473C369.563 321.473 370.013 321.573 370.39 321.772C370.768 321.972 371.061 322.254 371.267 322.617C371.481 322.974 371.588 323.401 371.588 323.9C371.588 324.171 371.553 324.432 371.481 324.681C371.41 324.924 371.296 325.166 371.139 325.408C370.989 325.644 370.793 325.89 370.551 326.146C370.308 326.396 370.016 326.67 369.674 326.97L367.653 328.724L367.3 328.36H371.642V329.333ZM372.606 325.483C372.606 324.685 372.735 323.986 372.991 323.387C373.255 322.781 373.626 322.311 374.103 321.975C374.581 321.633 375.144 321.462 375.793 321.462C376.442 321.462 377.002 321.633 377.472 321.975C377.95 322.311 378.317 322.781 378.574 323.387C378.838 323.986 378.969 324.685 378.969 325.483C378.969 326.289 378.841 326.991 378.584 327.59C378.335 328.189 377.971 328.656 377.494 328.991C377.023 329.319 376.456 329.483 375.793 329.483C375.13 329.483 374.56 329.319 374.082 328.991C373.604 328.656 373.237 328.189 372.981 327.59C372.731 326.991 372.606 326.289 372.606 325.483ZM373.644 325.483C373.644 326.118 373.729 326.667 373.9 327.13C374.071 327.587 374.314 327.936 374.628 328.178C374.948 328.421 375.337 328.542 375.793 328.542C376.242 328.542 376.627 328.421 376.948 328.178C377.269 327.936 377.511 327.587 377.675 327.13C377.847 326.667 377.932 326.118 377.932 325.483C377.932 324.842 377.847 324.293 377.675 323.836C377.511 323.373 377.269 323.02 376.948 322.778C376.627 322.528 376.242 322.403 375.793 322.403C375.337 322.403 374.948 322.528 374.628 322.778C374.314 323.02 374.071 323.373 373.9 323.836C373.729 324.293 373.644 324.842 373.644 325.483ZM385.208 329.333L379.989 329.344V328.542L382.481 326.392C382.795 326.129 383.055 325.89 383.262 325.676C383.469 325.462 383.633 325.266 383.754 325.088C383.875 324.902 383.961 324.72 384.01 324.542C384.06 324.364 384.085 324.171 384.085 323.965C384.085 323.48 383.953 323.102 383.69 322.831C383.433 322.553 383.069 322.414 382.599 322.414C382.121 322.414 381.736 322.578 381.444 322.906C381.159 323.227 381.012 323.662 381.005 324.211H379.957C379.971 323.662 380.089 323.18 380.31 322.767C380.531 322.353 380.838 322.036 381.23 321.815C381.629 321.587 382.089 321.473 382.609 321.473C383.13 321.473 383.579 321.573 383.957 321.772C384.335 321.972 384.627 322.254 384.834 322.617C385.048 322.974 385.155 323.401 385.155 323.9C385.155 324.171 385.119 324.432 385.048 324.681C384.977 324.924 384.862 325.166 384.706 325.408C384.556 325.644 384.36 325.89 384.117 326.146C383.875 326.396 383.583 326.67 383.24 326.97L381.219 328.724L380.866 328.36H385.208V329.333ZM391.401 329.333L386.183 329.344V328.542L388.674 326.392C388.988 326.129 389.248 325.89 389.455 325.676C389.662 325.462 389.826 325.266 389.947 325.088C390.068 324.902 390.154 324.72 390.204 324.542C390.254 324.364 390.279 324.171 390.279 323.965C390.279 323.48 390.147 323.102 389.883 322.831C389.626 322.553 389.263 322.414 388.792 322.414C388.314 322.414 387.929 322.578 387.637 322.906C387.352 323.227 387.206 323.662 387.198 324.211H386.15C386.165 323.662 386.282 323.18 386.503 322.767C386.724 322.353 387.031 322.036 387.423 321.815C387.822 321.587 388.282 321.473 388.803 321.473C389.323 321.473 389.772 321.573 390.15 321.772C390.528 321.972 390.82 322.254 391.027 322.617C391.241 322.974 391.348 323.401 391.348 323.9C391.348 324.171 391.312 324.432 391.241 324.681C391.17 324.924 391.056 325.166 390.899 325.408C390.749 325.644 390.553 325.89 390.311 326.146C390.068 326.396 389.776 326.67 389.434 326.97L387.412 328.724L387.059 328.36H391.401V329.333Z" fill="black"/>
<path d="M469.864 329.344H468.816V321.612H469.864L474.11 328.029H473.821V321.612H474.869V329.344H473.821L469.575 322.927H469.864V329.344ZM476.156 326.724C476.156 326.189 476.274 325.715 476.509 325.301C476.745 324.888 477.066 324.564 477.472 324.328C477.885 324.093 478.356 323.975 478.884 323.975C479.411 323.975 479.878 324.093 480.285 324.328C480.691 324.564 481.012 324.888 481.247 325.301C481.482 325.715 481.6 326.189 481.6 326.724C481.6 327.259 481.482 327.733 481.247 328.146C481.012 328.56 480.691 328.884 480.285 329.119C479.878 329.355 479.411 329.472 478.884 329.472C478.356 329.472 477.885 329.355 477.472 329.119C477.066 328.884 476.745 328.56 476.509 328.146C476.274 327.733 476.156 327.259 476.156 326.724ZM477.172 326.724C477.172 327.087 477.244 327.408 477.386 327.686C477.536 327.964 477.739 328.182 477.996 328.339C478.253 328.496 478.548 328.574 478.884 328.574C479.219 328.574 479.515 328.496 479.771 328.339C480.028 328.182 480.228 327.964 480.37 327.686C480.52 327.408 480.595 327.087 480.595 326.724C480.595 326.353 480.52 326.032 480.37 325.761C480.228 325.483 480.028 325.266 479.771 325.109C479.515 324.952 479.219 324.874 478.884 324.874C478.548 324.874 478.253 324.952 477.996 325.109C477.739 325.266 477.536 325.483 477.386 325.761C477.244 326.032 477.172 326.353 477.172 326.724ZM483.938 329.344L481.831 324.114H482.9L484.045 327.034C484.137 327.276 484.219 327.508 484.291 327.729C484.362 327.943 484.419 328.128 484.462 328.285C484.512 328.107 484.572 327.911 484.644 327.697C484.722 327.483 484.808 327.262 484.9 327.034L486.066 324.114H487.114L484.932 329.344H483.938ZM495.822 329.333L490.603 329.344V328.542L493.095 326.392C493.408 326.129 493.669 325.89 493.875 325.676C494.082 325.462 494.246 325.266 494.367 325.088C494.489 324.902 494.574 324.72 494.624 324.542C494.674 324.364 494.699 324.171 494.699 323.965C494.699 323.48 494.567 323.102 494.303 322.831C494.046 322.553 493.683 322.414 493.212 322.414C492.735 322.414 492.35 322.578 492.057 322.906C491.772 323.227 491.626 323.662 491.619 324.211H490.571C490.585 323.662 490.703 323.18 490.924 322.767C491.145 322.353 491.451 322.036 491.843 321.815C492.243 321.587 492.703 321.473 493.223 321.473C493.743 321.473 494.193 321.573 494.571 321.772C494.948 321.972 495.241 322.254 495.447 322.617C495.661 322.974 495.768 323.401 495.768 323.9C495.768 324.171 495.733 324.432 495.661 324.681C495.59 324.924 495.476 325.166 495.319 325.408C495.169 325.644 494.973 325.89 494.731 326.146C494.489 326.396 494.196 326.67 493.854 326.97L491.833 328.724L491.48 328.36H495.822V329.333ZM496.786 325.483C496.786 324.685 496.915 323.986 497.171 323.387C497.435 322.781 497.806 322.311 498.284 321.975C498.761 321.633 499.325 321.462 499.973 321.462C500.622 321.462 501.182 321.633 501.652 321.975C502.13 322.311 502.497 322.781 502.754 323.387C503.018 323.986 503.15 324.685 503.15 325.483C503.15 326.289 503.021 326.991 502.765 327.59C502.515 328.189 502.151 328.656 501.674 328.991C501.203 329.319 500.636 329.483 499.973 329.483C499.31 329.483 498.74 329.319 498.262 328.991C497.785 328.656 497.417 328.189 497.161 327.59C496.911 326.991 496.786 326.289 496.786 325.483ZM497.824 325.483C497.824 326.118 497.909 326.667 498.08 327.13C498.252 327.587 498.494 327.936 498.808 328.178C499.128 328.421 499.517 328.542 499.973 328.542C500.422 328.542 500.807 328.421 501.128 328.178C501.449 327.936 501.692 327.587 501.856 327.13C502.027 326.667 502.112 326.118 502.112 325.483C502.112 324.842 502.027 324.293 501.856 323.836C501.692 323.373 501.449 323.02 501.128 322.778C500.807 322.528 500.422 322.403 499.973 322.403C499.517 322.403 499.128 322.528 498.808 322.778C498.494 323.02 498.252 323.373 498.08 323.836C497.909 324.293 497.824 324.842 497.824 325.483ZM509.388 329.333L504.169 329.344V328.542L506.661 326.392C506.975 326.129 507.235 325.89 507.442 325.676C507.649 325.462 507.813 325.266 507.934 325.088C508.055 324.902 508.141 324.72 508.191 324.542C508.24 324.364 508.265 324.171 508.265 323.965C508.265 323.48 508.133 323.102 507.87 322.831C507.613 322.553 507.249 322.414 506.779 322.414C506.301 322.414 505.916 322.578 505.624 322.906C505.339 323.227 505.193 323.662 505.185 324.211H504.137C504.152 323.662 504.269 323.18 504.49 322.767C504.711 322.353 505.018 322.036 505.41 321.815C505.809 321.587 506.269 321.473 506.79 321.473C507.31 321.473 507.759 321.573 508.137 321.772C508.515 321.972 508.807 322.254 509.014 322.617C509.228 322.974 509.335 323.401 509.335 323.9C509.335 324.171 509.299 324.432 509.228 324.681C509.157 324.924 509.043 325.166 508.886 325.408C508.736 325.644 508.54 325.89 508.297 326.146C508.055 326.396 507.763 326.67 507.421 326.97L505.399 328.724L505.046 328.36H509.388V329.333ZM515.357 322.457L512.523 325.162L511.838 324.649L514.576 322.018L514.523 322.542H510.555V321.612H515.357V322.457ZM512.608 325.344H511.838V324.649C511.96 324.571 512.109 324.521 512.288 324.499C512.473 324.471 512.651 324.457 512.822 324.457C513.2 324.457 513.553 324.514 513.881 324.628C514.209 324.735 514.498 324.895 514.747 325.109C515.004 325.323 515.2 325.583 515.336 325.89C515.478 326.189 515.549 326.531 515.549 326.916C515.549 327.437 515.428 327.89 515.186 328.275C514.951 328.66 514.623 328.955 514.202 329.162C513.788 329.369 513.321 329.472 512.801 329.472C512.295 329.472 511.846 329.373 511.453 329.173C511.061 328.973 510.751 328.684 510.523 328.307C510.302 327.922 510.191 327.465 510.191 326.938H511.229C511.229 327.437 511.371 327.829 511.657 328.114C511.949 328.392 512.338 328.531 512.822 328.531C513.321 328.531 513.721 328.381 514.02 328.082C514.327 327.783 514.48 327.387 514.48 326.895C514.48 326.432 514.323 326.057 514.009 325.772C513.696 325.487 513.229 325.344 512.608 325.344Z" fill="black"/>
<path d="M100.761 300.811C100.761 300.811 220.947 281.955 245.901 290.287C270.855 298.618 278.152 282.074 300.392 267.923C359.212 230.497 382.084 161.102 425.67 104.364C475.499 39.5001 512.499 37.0001 512.499 37.0001" stroke="#FF556F" stroke-width="3.05557" stroke-linecap="round"/>
<circle cx="258.887" cy="294.167" r="9.16672" fill="white"/>
<circle cx="258.889" cy="294.167" r="6.11115" fill="#FF556F"/>
<path d="M47.8646 46.6854V54.3427H47.116V46.6854H47.8646ZM43.0949 52.0326L46.8379 46.6854H47.6721L43.9183 52.054L43.0949 52.0326ZM48.763 52.7171H43.0949V52.0326H48.763V52.7171ZM49.9602 50.514C49.9602 49.7155 50.0814 49.0204 50.3238 48.4286C50.5734 47.8368 50.9263 47.3734 51.3826 47.0383C51.846 46.7032 52.395 46.5357 53.0296 46.5357C53.6641 46.5357 54.2095 46.7032 54.6658 47.0383C55.1221 47.3734 55.4715 47.8368 55.7139 48.4286C55.9634 49.0204 56.0882 49.7155 56.0882 50.514C56.0882 51.3125 55.967 52.0077 55.7246 52.5994C55.4822 53.1912 55.1328 53.6546 54.6765 53.9897C54.2202 54.3177 53.6712 54.4817 53.0296 54.4817C52.3879 54.4817 51.8353 54.3177 51.3719 53.9897C50.9156 53.6546 50.5663 53.1912 50.3238 52.5994C50.0814 52.0077 49.9602 51.3125 49.9602 50.514ZM50.7195 50.514C50.7195 51.1771 50.8087 51.7546 50.9869 52.2465C51.1723 52.7385 51.4361 53.1199 51.7783 53.3908C52.1205 53.6546 52.5376 53.7865 53.0296 53.7865C53.5144 53.7865 53.9279 53.6546 54.2701 53.3908C54.6195 53.1199 54.8833 52.7385 55.0615 52.2465C55.2469 51.7546 55.3396 51.1771 55.3396 50.514C55.3396 49.8438 55.2469 49.2663 55.0615 48.7815C54.8833 48.2896 54.6195 47.9117 54.2701 47.6479C53.9279 47.377 53.5144 47.2415 53.0296 47.2415C52.5376 47.2415 52.1205 47.377 51.7783 47.6479C51.4361 47.9117 51.1723 48.2896 50.9869 48.7815C50.8087 49.2663 50.7195 49.8438 50.7195 50.514ZM57.7428 54.2357H57.7963C57.7607 54.2714 57.7143 54.2999 57.6573 54.3213C57.6074 54.3427 57.5432 54.3533 57.4648 54.3533C57.3222 54.3533 57.1938 54.3034 57.0798 54.2036C56.9657 54.0967 56.9087 53.9541 56.9087 53.7758C56.9087 53.5905 56.9657 53.4372 57.0798 53.316C57.201 53.1948 57.3543 53.1342 57.5396 53.1342C57.7321 53.1342 57.8997 53.209 58.0423 53.3588C58.1849 53.5085 58.2562 53.7152 58.2562 53.979C58.2562 54.2001 58.2027 54.4068 58.0957 54.5993C57.9959 54.7918 57.8569 54.9487 57.6787 55.0699C57.5004 55.1982 57.3008 55.2802 57.0798 55.3159V54.9202C57.2723 54.8845 57.4291 54.8025 57.5503 54.6742C57.6787 54.553 57.7428 54.4068 57.7428 54.2357ZM59.0777 50.514C59.0777 49.7155 59.1989 49.0204 59.4413 48.4286C59.6909 47.8368 60.0438 47.3734 60.5001 47.0383C60.9635 46.7032 61.5125 46.5357 62.147 46.5357C62.7816 46.5357 63.327 46.7032 63.7833 47.0383C64.2396 47.3734 64.589 47.8368 64.8314 48.4286C65.0809 49.0204 65.2057 49.7155 65.2057 50.514C65.2057 51.3125 65.0845 52.0077 64.8421 52.5994C64.5996 53.1912 64.2503 53.6546 63.794 53.9897C63.3377 54.3177 62.7887 54.4817 62.147 54.4817C61.5054 54.4817 60.9528 54.3177 60.4894 53.9897C60.0331 53.6546 59.6837 53.1912 59.4413 52.5994C59.1989 52.0077 59.0777 51.3125 59.0777 50.514ZM59.837 50.514C59.837 51.1771 59.9261 51.7546 60.1044 52.2465C60.2898 52.7385 60.5536 53.1199 60.8958 53.3908C61.238 53.6546 61.6551 53.7865 62.147 53.7865C62.6319 53.7865 63.0454 53.6546 63.3876 53.3908C63.737 53.1199 64.0008 52.7385 64.179 52.2465C64.3644 51.7546 64.4571 51.1771 64.4571 50.514C64.4571 49.8438 64.3644 49.2663 64.179 48.7815C64.0008 48.2896 63.737 47.9117 63.3876 47.6479C63.0454 47.377 62.6319 47.2415 62.147 47.2415C61.6551 47.2415 61.238 47.377 60.8958 47.6479C60.5536 47.9117 60.2898 48.2896 60.1044 48.7815C59.9261 49.2663 59.837 49.8438 59.837 50.514ZM66.378 50.514C66.378 49.7155 66.4992 49.0204 66.7416 48.4286C66.9911 47.8368 67.344 47.3734 67.8003 47.0383C68.2638 46.7032 68.8127 46.5357 69.4473 46.5357C70.0818 46.5357 70.6273 46.7032 71.0835 47.0383C71.5398 47.3734 71.8892 47.8368 72.1316 48.4286C72.3811 49.0204 72.5059 49.7155 72.5059 50.514C72.5059 51.3125 72.3847 52.0077 72.1423 52.5994C71.8999 53.1912 71.5505 53.6546 71.0942 53.9897C70.6379 54.3177 70.089 54.4817 69.4473 54.4817C68.8056 54.4817 68.2531 54.3177 67.7896 53.9897C67.3333 53.6546 66.984 53.1912 66.7416 52.5994C66.4992 52.0077 66.378 51.3125 66.378 50.514ZM67.1373 50.514C67.1373 51.1771 67.2264 51.7546 67.4046 52.2465C67.59 52.7385 67.8538 53.1199 68.196 53.3908C68.5383 53.6546 68.9553 53.7865 69.4473 53.7865C69.9321 53.7865 70.3456 53.6546 70.6879 53.3908C71.0372 53.1199 71.301 52.7385 71.4792 52.2465C71.6646 51.7546 71.7573 51.1771 71.7573 50.514C71.7573 49.8438 71.6646 49.2663 71.4792 48.7815C71.301 48.2896 71.0372 47.9117 70.6879 47.6479C70.3456 47.377 69.9321 47.2415 69.4473 47.2415C68.9553 47.2415 68.5383 47.377 68.196 47.6479C67.8538 47.9117 67.59 48.2896 67.4046 48.7815C67.2264 49.2663 67.1373 49.8438 67.1373 50.514ZM73.6782 50.514C73.6782 49.7155 73.7994 49.0204 74.0418 48.4286C74.2914 47.8368 74.6443 47.3734 75.1006 47.0383C75.564 46.7032 76.113 46.5357 76.7475 46.5357C77.3821 46.5357 77.9275 46.7032 78.3838 47.0383C78.8401 47.3734 79.1895 47.8368 79.4319 48.4286C79.6814 49.0204 79.8062 49.7155 79.8062 50.514C79.8062 51.3125 79.685 52.0077 79.4426 52.5994C79.2001 53.1912 78.8508 53.6546 78.3945 53.9897C77.9382 54.3177 77.3892 54.4817 76.7475 54.4817C76.1059 54.4817 75.5533 54.3177 75.0899 53.9897C74.6336 53.6546 74.2842 53.1912 74.0418 52.5994C73.7994 52.0077 73.6782 51.3125 73.6782 50.514ZM74.4375 50.514C74.4375 51.1771 74.5266 51.7546 74.7049 52.2465C74.8903 52.7385 75.1541 53.1199 75.4963 53.3908C75.8385 53.6546 76.2556 53.7865 76.7475 53.7865C77.2324 53.7865 77.6459 53.6546 77.9881 53.3908C78.3375 53.1199 78.6013 52.7385 78.7795 52.2465C78.9649 51.7546 79.0576 51.1771 79.0576 50.514C79.0576 49.8438 78.9649 49.2663 78.7795 48.7815C78.6013 48.2896 78.3375 47.9117 77.9881 47.6479C77.6459 47.377 77.2324 47.2415 76.7475 47.2415C76.2556 47.2415 75.8385 47.377 75.4963 47.6479C75.1541 47.9117 74.8903 48.2896 74.7049 48.7815C74.5266 49.2663 74.4375 49.8438 74.4375 50.514Z" fill="black"/>
<path d="M48.7254 109.639L45.8806 112.463L45.3887 112.035L48.1372 109.319L48.2334 109.704H44.084V109.019H48.7254V109.639ZM45.9983 112.57H45.3887V112.035C45.5099 111.992 45.6418 111.96 45.7844 111.939C45.927 111.917 46.0731 111.907 46.2229 111.907C46.615 111.907 46.9715 111.964 47.2923 112.078C47.6131 112.185 47.8948 112.345 48.1372 112.559C48.3796 112.766 48.565 113.015 48.6933 113.308C48.8287 113.6 48.8965 113.928 48.8965 114.292C48.8965 114.798 48.7824 115.24 48.5543 115.618C48.3261 115.996 48.0088 116.288 47.6024 116.495C47.2032 116.701 46.7469 116.805 46.2335 116.805C45.7273 116.805 45.2853 116.708 44.9074 116.516C44.5296 116.316 44.2337 116.031 44.0198 115.66C43.813 115.29 43.7096 114.851 43.7096 114.345H44.469C44.469 114.894 44.6294 115.325 44.9502 115.639C45.271 115.953 45.6988 116.11 46.2335 116.11C46.8111 116.11 47.2674 115.942 47.6024 115.607C47.9447 115.272 48.1158 114.826 48.1158 114.27C48.1158 113.743 47.934 113.329 47.5704 113.03C47.2067 112.723 46.6827 112.57 45.9983 112.57ZM49.9591 112.848C49.9591 112.049 50.0803 111.354 50.3227 110.762C50.5722 110.171 50.9251 109.707 51.3814 109.372C51.8449 109.037 52.3939 108.869 53.0284 108.869C53.6629 108.869 54.2084 109.037 54.6647 109.372C55.121 109.707 55.4703 110.171 55.7127 110.762C55.9623 111.354 56.087 112.049 56.087 112.848C56.087 113.646 55.9658 114.341 55.7234 114.933C55.481 115.525 55.1317 115.988 54.6754 116.323C54.2191 116.651 53.6701 116.815 53.0284 116.815C52.3867 116.815 51.8342 116.651 51.3708 116.323C50.9145 115.988 50.5651 115.525 50.3227 114.933C50.0803 114.341 49.9591 113.646 49.9591 112.848ZM50.7184 112.848C50.7184 113.511 50.8075 114.088 50.9858 114.58C51.1711 115.072 51.4349 115.454 51.7771 115.725C52.1194 115.988 52.5365 116.12 53.0284 116.12C53.5132 116.12 53.9267 115.988 54.269 115.725C54.6183 115.454 54.8821 115.072 55.0604 114.58C55.2457 114.088 55.3384 113.511 55.3384 112.848C55.3384 112.178 55.2457 111.6 55.0604 111.115C54.8821 110.623 54.6183 110.245 54.269 109.982C53.9267 109.711 53.5132 109.575 53.0284 109.575C52.5365 109.575 52.1194 109.711 51.7771 109.982C51.4349 110.245 51.1711 110.623 50.9858 111.115C50.8075 111.6 50.7184 112.178 50.7184 112.848ZM57.5813 116.794C57.403 116.794 57.2462 116.73 57.1107 116.602C56.9752 116.473 56.9075 116.32 56.9075 116.142C56.9075 115.956 56.9752 115.799 57.1107 115.671C57.2462 115.536 57.403 115.468 57.5813 115.468C57.7666 115.468 57.9235 115.536 58.0518 115.671C58.1873 115.799 58.255 115.956 58.255 116.142C58.255 116.32 58.1873 116.473 58.0518 116.602C57.9235 116.73 57.7666 116.794 57.5813 116.794ZM59.0766 112.848C59.0766 112.049 59.1978 111.354 59.4402 110.762C59.6897 110.171 60.0426 109.707 60.4989 109.372C60.9624 109.037 61.5113 108.869 62.1459 108.869C62.7804 108.869 63.3258 109.037 63.7821 109.372C64.2384 109.707 64.5878 110.171 64.8302 110.762C65.0797 111.354 65.2045 112.049 65.2045 112.848C65.2045 113.646 65.0833 114.341 64.8409 114.933C64.5985 115.525 64.2491 115.988 63.7928 116.323C63.3365 116.651 62.7876 116.815 62.1459 116.815C61.5042 116.815 60.9517 116.651 60.4882 116.323C60.0319 115.988 59.6826 115.525 59.4402 114.933C59.1978 114.341 59.0766 113.646 59.0766 112.848ZM59.8359 112.848C59.8359 113.511 59.925 114.088 60.1032 114.58C60.2886 115.072 60.5524 115.454 60.8946 115.725C61.2368 115.988 61.6539 116.12 62.1459 116.12C62.6307 116.12 63.0442 115.988 63.3864 115.725C63.7358 115.454 63.9996 115.072 64.1778 114.58C64.3632 114.088 64.4559 113.511 64.4559 112.848C64.4559 112.178 64.3632 111.6 64.1778 111.115C63.9996 110.623 63.7358 110.245 63.3864 109.982C63.0442 109.711 62.6307 109.575 62.1459 109.575C61.6539 109.575 61.2368 109.711 60.8946 109.982C60.5524 110.245 60.2886 110.623 60.1032 111.115C59.925 111.6 59.8359 112.178 59.8359 112.848ZM66.3768 112.848C66.3768 112.049 66.498 111.354 66.7404 110.762C66.99 110.171 67.3429 109.707 67.7992 109.372C68.2626 109.037 68.8116 108.869 69.4461 108.869C70.0807 108.869 70.6261 109.037 71.0824 109.372C71.5387 109.707 71.888 110.171 72.1305 110.762C72.38 111.354 72.5048 112.049 72.5048 112.848C72.5048 113.646 72.3836 114.341 72.1411 114.933C71.8987 115.525 71.5494 115.988 71.0931 116.323C70.6368 116.651 70.0878 116.815 69.4461 116.815C68.8045 116.815 68.2519 116.651 67.7885 116.323C67.3322 115.988 66.9828 115.525 66.7404 114.933C66.498 114.341 66.3768 113.646 66.3768 112.848ZM67.1361 112.848C67.1361 113.511 67.2252 114.088 67.4035 114.58C67.5889 115.072 67.8527 115.454 68.1949 115.725C68.5371 115.988 68.9542 116.12 69.4461 116.12C69.9309 116.12 70.3445 115.988 70.6867 115.725C71.036 115.454 71.2998 115.072 71.4781 114.58C71.6635 114.088 71.7561 113.511 71.7561 112.848C71.7561 112.178 71.6635 111.6 71.4781 111.115C71.2998 110.623 71.036 110.245 70.6867 109.982C70.3445 109.711 69.9309 109.575 69.4461 109.575C68.9542 109.575 68.5371 109.711 68.1949 109.982C67.8527 110.245 67.5889 110.623 67.4035 111.115C67.2252 111.6 67.1361 112.178 67.1361 112.848ZM73.6771 112.848C73.6771 112.049 73.7983 111.354 74.0407 110.762C74.2902 110.171 74.6431 109.707 75.0994 109.372C75.5629 109.037 76.1118 108.869 76.7464 108.869C77.3809 108.869 77.9263 109.037 78.3826 109.372C78.8389 109.707 79.1883 110.171 79.4307 110.762C79.6802 111.354 79.805 112.049 79.805 112.848C79.805 113.646 79.6838 114.341 79.4414 114.933C79.199 115.525 78.8496 115.988 78.3933 116.323C77.937 116.651 77.3881 116.815 76.7464 116.815C76.1047 116.815 75.5522 116.651 75.0887 116.323C74.6324 115.988 74.2831 115.525 74.0407 114.933C73.7983 114.341 73.6771 113.646 73.6771 112.848ZM74.4364 112.848C74.4364 113.511 74.5255 114.088 74.7037 114.58C74.8891 115.072 75.1529 115.454 75.4951 115.725C75.8374 115.988 76.2544 116.12 76.7464 116.12C77.2312 116.12 77.6447 115.988 77.9869 115.725C78.3363 115.454 78.6001 115.072 78.7783 114.58C78.9637 114.088 79.0564 113.511 79.0564 112.848C79.0564 112.178 78.9637 111.6 78.7783 111.115C78.6001 110.623 78.3363 110.245 77.9869 109.982C77.6447 109.711 77.2312 109.575 76.7464 109.575C76.2544 109.575 75.8374 109.711 75.4951 109.982C75.1529 110.245 74.8891 110.623 74.7037 111.115C74.5255 111.6 74.4364 112.178 74.4364 112.848Z" fill="black"/>
<path d="M49.4054 179.01H44.3576V178.4L46.8066 176.262C47.1631 175.955 47.4554 175.684 47.6836 175.449C47.9117 175.213 48.09 175 48.2183 174.807C48.3538 174.607 48.4465 174.411 48.4964 174.219C48.5534 174.026 48.5819 173.816 48.5819 173.588C48.5819 173.075 48.4358 172.668 48.1435 172.369C47.8511 172.069 47.4519 171.92 46.9457 171.92C46.4181 171.92 45.9903 172.098 45.6623 172.454C45.3415 172.811 45.174 173.285 45.1597 173.877H44.3897C44.4111 173.342 44.5287 172.875 44.7426 172.476C44.9565 172.076 45.2524 171.766 45.6302 171.545C46.0153 171.324 46.4573 171.214 46.9564 171.214C47.4412 171.214 47.8618 171.314 48.2183 171.513C48.5819 171.706 48.8636 171.977 49.0632 172.326C49.2628 172.668 49.3626 173.075 49.3626 173.545C49.3626 173.816 49.327 174.076 49.2557 174.326C49.1844 174.568 49.0703 174.811 48.9135 175.053C48.7566 175.295 48.5498 175.552 48.2932 175.823C48.0365 176.094 47.7157 176.397 47.3307 176.732L45.1918 178.604L44.9565 178.293H49.4054V179.01ZM50.4698 175.181C50.4698 174.383 50.591 173.688 50.8334 173.096C51.0829 172.504 51.4358 172.041 51.8921 171.706C52.3556 171.371 52.9045 171.203 53.5391 171.203C54.1736 171.203 54.719 171.371 55.1753 171.706C55.6316 172.041 55.981 172.504 56.2234 173.096C56.4729 173.688 56.5977 174.383 56.5977 175.181C56.5977 175.98 56.4765 176.675 56.2341 177.267C55.9917 177.859 55.6423 178.322 55.186 178.657C54.7297 178.985 54.1808 179.149 53.5391 179.149C52.8974 179.149 52.3449 178.985 51.8814 178.657C51.4251 178.322 51.0758 177.859 50.8334 177.267C50.591 176.675 50.4698 175.98 50.4698 175.181ZM51.2291 175.181C51.2291 175.844 51.3182 176.422 51.4964 176.914C51.6818 177.406 51.9456 177.787 52.2878 178.058C52.6301 178.322 53.0471 178.454 53.5391 178.454C54.0239 178.454 54.4374 178.322 54.7796 178.058C55.129 177.787 55.3928 177.406 55.571 176.914C55.7564 176.422 55.8491 175.844 55.8491 175.181C55.8491 174.511 55.7564 173.934 55.571 173.449C55.3928 172.957 55.129 172.579 54.7796 172.315C54.4374 172.044 54.0239 171.909 53.5391 171.909C53.0471 171.909 52.6301 172.044 52.2878 172.315C51.9456 172.579 51.6818 172.957 51.4964 173.449C51.3182 173.934 51.2291 174.511 51.2291 175.181ZM58.0919 179.128C57.9137 179.128 57.7568 179.063 57.6214 178.935C57.4859 178.807 57.4182 178.654 57.4182 178.475C57.4182 178.29 57.4859 178.133 57.6214 178.005C57.7568 177.869 57.9137 177.802 58.0919 177.802C58.2773 177.802 58.4342 177.869 58.5625 178.005C58.698 178.133 58.7657 178.29 58.7657 178.475C58.7657 178.654 58.698 178.807 58.5625 178.935C58.4342 179.063 58.2773 179.128 58.0919 179.128ZM59.5872 175.181C59.5872 174.383 59.7084 173.688 59.9509 173.096C60.2004 172.504 60.5533 172.041 61.0096 171.706C61.473 171.371 62.022 171.203 62.6566 171.203C63.2911 171.203 63.8365 171.371 64.2928 171.706C64.7491 172.041 65.0985 172.504 65.3409 173.096C65.5904 173.688 65.7152 174.383 65.7152 175.181C65.7152 175.98 65.594 176.675 65.3516 177.267C65.1092 177.859 64.7598 178.322 64.3035 178.657C63.8472 178.985 63.2982 179.149 62.6566 179.149C62.0149 179.149 61.4623 178.985 60.9989 178.657C60.5426 178.322 60.1933 177.859 59.9509 177.267C59.7084 176.675 59.5872 175.98 59.5872 175.181ZM60.3466 175.181C60.3466 175.844 60.4357 176.422 60.6139 176.914C60.7993 177.406 61.0631 177.787 61.4053 178.058C61.7475 178.322 62.1646 178.454 62.6566 178.454C63.1414 178.454 63.5549 178.322 63.8971 178.058C64.2465 177.787 64.5103 177.406 64.6885 176.914C64.8739 176.422 64.9666 175.844 64.9666 175.181C64.9666 174.511 64.8739 173.934 64.6885 173.449C64.5103 172.957 64.2465 172.579 63.8971 172.315C63.5549 172.044 63.1414 171.909 62.6566 171.909C62.1646 171.909 61.7475 172.044 61.4053 172.315C61.0631 172.579 60.7993 172.957 60.6139 173.449C60.4357 173.934 60.3466 174.511 60.3466 175.181ZM66.8875 175.181C66.8875 174.383 67.0087 173.688 67.2511 173.096C67.5006 172.504 67.8536 172.041 68.3099 171.706C68.7733 171.371 69.3223 171.203 69.9568 171.203C70.5914 171.203 71.1368 171.371 71.5931 171.706C72.0494 172.041 72.3987 172.504 72.6411 173.096C72.8907 173.688 73.0154 174.383 73.0154 175.181C73.0154 175.98 72.8942 176.675 72.6518 177.267C72.4094 177.859 72.0601 178.322 71.6038 178.657C71.1475 178.985 70.5985 179.149 69.9568 179.149C69.3151 179.149 68.7626 178.985 68.2992 178.657C67.8429 178.322 67.4935 177.859 67.2511 177.267C67.0087 176.675 66.8875 175.98 66.8875 175.181ZM67.6468 175.181C67.6468 175.844 67.7359 176.422 67.9142 176.914C68.0995 177.406 68.3633 177.787 68.7056 178.058C69.0478 178.322 69.4649 178.454 69.9568 178.454C70.4416 178.454 70.8552 178.322 71.1974 178.058C71.5467 177.787 71.8105 177.406 71.9888 176.914C72.1741 176.422 72.2668 175.844 72.2668 175.181C72.2668 174.511 72.1741 173.934 71.9888 173.449C71.8105 172.957 71.5467 172.579 71.1974 172.315C70.8552 172.044 70.4416 171.909 69.9568 171.909C69.4649 171.909 69.0478 172.044 68.7056 172.315C68.3633 172.579 68.0995 172.957 67.9142 173.449C67.7359 173.934 67.6468 174.511 67.6468 175.181ZM74.1877 175.181C74.1877 174.383 74.3089 173.688 74.5514 173.096C74.8009 172.504 75.1538 172.041 75.6101 171.706C76.0735 171.371 76.6225 171.203 77.2571 171.203C77.8916 171.203 78.437 171.371 78.8933 171.706C79.3496 172.041 79.699 172.504 79.9414 173.096C80.1909 173.688 80.3157 174.383 80.3157 175.181C80.3157 175.98 80.1945 176.675 79.9521 177.267C79.7097 177.859 79.3603 178.322 78.904 178.657C78.4477 178.985 77.8987 179.149 77.2571 179.149C76.6154 179.149 76.0628 178.985 75.5994 178.657C75.1431 178.322 74.7938 177.859 74.5514 177.267C74.3089 176.675 74.1877 175.98 74.1877 175.181ZM74.9471 175.181C74.9471 175.844 75.0362 176.422 75.2144 176.914C75.3998 177.406 75.6636 177.787 76.0058 178.058C76.348 178.322 76.7651 178.454 77.2571 178.454C77.7419 178.454 78.1554 178.322 78.4976 178.058C78.847 177.787 79.1108 177.406 79.289 176.914C79.4744 176.422 79.5671 175.844 79.5671 175.181C79.5671 174.511 79.4744 173.934 79.289 173.449C79.1108 172.957 78.847 172.579 78.4976 172.315C78.1554 172.044 77.7419 171.909 77.2571 171.909C76.7651 171.909 76.348 172.044 76.0058 172.315C75.6636 172.579 75.3998 172.957 75.2144 173.449C75.0362 173.934 74.9471 174.511 74.9471 175.181Z" fill="black"/>
<path d="M47.7352 234.382H46.1738V233.686H48.4732V241.344H47.7352V234.382ZM49.9595 237.515C49.9595 236.717 50.0807 236.021 50.3231 235.43C50.5727 234.838 50.9256 234.374 51.3819 234.039C51.8453 233.704 52.3943 233.537 53.0288 233.537C53.6634 233.537 54.2088 233.704 54.6651 234.039C55.1214 234.374 55.4708 234.838 55.7132 235.43C55.9627 236.021 56.0875 236.717 56.0875 237.515C56.0875 238.314 55.9663 239.009 55.7239 239.601C55.4815 240.192 55.1321 240.656 54.6758 240.991C54.2195 241.319 53.6705 241.483 53.0288 241.483C52.3872 241.483 51.8346 241.319 51.3712 240.991C50.9149 240.656 50.5655 240.192 50.3231 239.601C50.0807 239.009 49.9595 238.314 49.9595 237.515ZM50.7188 237.515C50.7188 238.178 50.808 238.756 50.9862 239.248C51.1716 239.74 51.4354 240.121 51.7776 240.392C52.1198 240.656 52.5369 240.788 53.0288 240.788C53.5137 240.788 53.9272 240.656 54.2694 240.392C54.6188 240.121 54.8826 239.74 55.0608 239.248C55.2462 238.756 55.3389 238.178 55.3389 237.515C55.3389 236.845 55.2462 236.267 55.0608 235.783C54.8826 235.291 54.6188 234.913 54.2694 234.649C53.9272 234.378 53.5137 234.243 53.0288 234.243C52.5369 234.243 52.1198 234.378 51.7776 234.649C51.4354 234.913 51.1716 235.291 50.9862 235.783C50.808 236.267 50.7188 236.845 50.7188 237.515ZM57.5817 241.461C57.4035 241.461 57.2466 241.397 57.1111 241.269C56.9757 241.141 56.9079 240.987 56.9079 240.809C56.9079 240.624 56.9757 240.467 57.1111 240.338C57.2466 240.203 57.4035 240.135 57.5817 240.135C57.7671 240.135 57.9239 240.203 58.0523 240.338C58.1877 240.467 58.2554 240.624 58.2554 240.809C58.2554 240.987 58.1877 241.141 58.0523 241.269C57.9239 241.397 57.7671 241.461 57.5817 241.461ZM59.077 237.515C59.077 236.717 59.1982 236.021 59.4406 235.43C59.6902 234.838 60.0431 234.374 60.4994 234.039C60.9628 233.704 61.5118 233.537 62.1463 233.537C62.7809 233.537 63.3263 233.704 63.7826 234.039C64.2389 234.374 64.5882 234.838 64.8306 235.43C65.0802 236.021 65.205 236.717 65.205 237.515C65.205 238.314 65.0838 239.009 64.8413 239.601C64.5989 240.192 64.2496 240.656 63.7933 240.991C63.337 241.319 62.788 241.483 62.1463 241.483C61.5047 241.483 60.9521 241.319 60.4887 240.991C60.0324 240.656 59.683 240.192 59.4406 239.601C59.1982 239.009 59.077 238.314 59.077 237.515ZM59.8363 237.515C59.8363 238.178 59.9254 238.756 60.1037 239.248C60.289 239.74 60.5528 240.121 60.8951 240.392C61.2373 240.656 61.6544 240.788 62.1463 240.788C62.6311 240.788 63.0447 240.656 63.3869 240.392C63.7362 240.121 64 239.74 64.1783 239.248C64.3637 238.756 64.4563 238.178 64.4563 237.515C64.4563 236.845 64.3637 236.267 64.1783 235.783C64 235.291 63.7362 234.913 63.3869 234.649C63.0447 234.378 62.6311 234.243 62.1463 234.243C61.6544 234.243 61.2373 234.378 60.8951 234.649C60.5528 234.913 60.289 235.291 60.1037 235.783C59.9254 236.267 59.8363 236.845 59.8363 237.515ZM66.3773 237.515C66.3773 236.717 66.4985 236.021 66.7409 235.43C66.9904 234.838 67.3433 234.374 67.7996 234.039C68.2631 233.704 68.812 233.537 69.4466 233.537C70.0811 233.537 70.6265 233.704 71.0828 234.039C71.5391 234.374 71.8885 234.838 72.1309 235.43C72.3804 236.021 72.5052 236.717 72.5052 237.515C72.5052 238.314 72.384 239.009 72.1416 239.601C71.8992 240.192 71.5498 240.656 71.0935 240.991C70.6372 241.319 70.0882 241.483 69.4466 241.483C68.8049 241.483 68.2524 241.319 67.7889 240.991C67.3326 240.656 66.9833 240.192 66.7409 239.601C66.4985 239.009 66.3773 238.314 66.3773 237.515ZM67.1366 237.515C67.1366 238.178 67.2257 238.756 67.4039 239.248C67.5893 239.74 67.8531 240.121 68.1953 240.392C68.5375 240.656 68.9546 240.788 69.4466 240.788C69.9314 240.788 70.3449 240.656 70.6871 240.392C71.0365 240.121 71.3003 239.74 71.4785 239.248C71.6639 238.756 71.7566 238.178 71.7566 237.515C71.7566 236.845 71.6639 236.267 71.4785 235.783C71.3003 235.291 71.0365 234.913 70.6871 234.649C70.3449 234.378 69.9314 234.243 69.4466 234.243C68.9546 234.243 68.5375 234.378 68.1953 234.649C67.8531 234.913 67.5893 235.291 67.4039 235.783C67.2257 236.267 67.1366 236.845 67.1366 237.515ZM73.6775 237.515C73.6775 236.717 73.7987 236.021 74.0411 235.43C74.2907 234.838 74.6436 234.374 75.0999 234.039C75.5633 233.704 76.1123 233.537 76.7468 233.537C77.3814 233.537 77.9268 233.704 78.3831 234.039C78.8394 234.374 79.1887 234.838 79.4311 235.43C79.6807 236.021 79.8055 236.717 79.8055 237.515C79.8055 238.314 79.6843 239.009 79.4418 239.601C79.1994 240.192 78.8501 240.656 78.3938 240.991C77.9375 241.319 77.3885 241.483 76.7468 241.483C76.1052 241.483 75.5526 241.319 75.0892 240.991C74.6329 240.656 74.2835 240.192 74.0411 239.601C73.7987 239.009 73.6775 238.314 73.6775 237.515ZM74.4368 237.515C74.4368 238.178 74.5259 238.756 74.7042 239.248C74.8896 239.74 75.1533 240.121 75.4956 240.392C75.8378 240.656 76.2549 240.788 76.7468 240.788C77.2316 240.788 77.6452 240.656 77.9874 240.392C78.3367 240.121 78.6005 239.74 78.7788 239.248C78.9642 238.756 79.0568 238.178 79.0568 237.515C79.0568 236.845 78.9642 236.267 78.7788 235.783C78.6005 235.291 78.3367 234.913 77.9874 234.649C77.6452 234.378 77.2316 234.243 76.7468 234.243C76.2549 234.243 75.8378 234.378 75.4956 234.649C75.1533 234.913 74.8896 235.291 74.7042 235.783C74.5259 236.267 74.4368 236.845 74.4368 237.515Z" fill="black"/>
<path d="M74.6956 299.849C74.6956 299.05 74.8169 298.355 75.0593 297.763C75.3088 297.172 75.6617 296.708 76.118 296.373C76.5814 296.038 77.1304 295.87 77.765 295.87C78.3995 295.87 78.9449 296.038 79.4012 296.373C79.8575 296.708 80.2069 297.172 80.4493 297.763C80.6988 298.355 80.8236 299.05 80.8236 299.849C80.8236 300.647 80.7024 301.342 80.46 301.934C80.2176 302.526 79.8682 302.989 79.4119 303.324C78.9556 303.652 78.4066 303.816 77.765 303.816C77.1233 303.816 76.5707 303.652 76.1073 303.324C75.651 302.989 75.3017 302.526 75.0593 301.934C74.8169 301.342 74.6956 300.647 74.6956 299.849ZM75.455 299.849C75.455 300.512 75.5441 301.089 75.7223 301.581C75.9077 302.073 76.1715 302.455 76.5137 302.726C76.8559 302.989 77.273 303.121 77.765 303.121C78.2498 303.121 78.6633 302.989 79.0055 302.726C79.3549 302.455 79.6187 302.073 79.7969 301.581C79.9823 301.089 80.075 300.512 80.075 299.849C80.075 299.179 79.9823 298.601 79.7969 298.116C79.6187 297.624 79.3549 297.246 79.0055 296.983C78.6633 296.712 78.2498 296.576 77.765 296.576C77.273 296.576 76.8559 296.712 76.5137 296.983C76.1715 297.246 75.9077 297.624 75.7223 298.116C75.5441 298.601 75.455 299.179 75.455 299.849Z" fill="black"/>
<rect x="202" y="346" width="41.5049" height="6.91748" rx="3.45874" fill="#5570FF"/>
<rect x="326.018" y="346" width="41.5049" height="6.91748" rx="3.45874" fill="#FF556F"/>
<path d="M183.301 369.118C182.567 369.118 181.925 368.954 181.376 368.626C180.827 368.291 180.399 367.827 180.093 367.235C179.786 366.637 179.633 365.938 179.633 365.139C179.633 364.341 179.79 363.642 180.104 363.043C180.417 362.444 180.852 361.977 181.408 361.642C181.972 361.307 182.62 361.14 183.355 361.14C183.939 361.14 184.467 361.25 184.938 361.471C185.408 361.685 185.8 361.988 186.114 362.38C186.428 362.772 186.631 363.232 186.724 363.76H185.601C185.458 363.253 185.184 362.858 184.777 362.573C184.371 362.287 183.886 362.145 183.323 362.145C182.802 362.145 182.346 362.27 181.954 362.519C181.569 362.762 181.269 363.107 181.055 363.556C180.842 363.999 180.735 364.523 180.735 365.129C180.735 365.727 180.842 366.252 181.055 366.701C181.269 367.15 181.572 367.499 181.964 367.749C182.357 367.991 182.809 368.112 183.323 368.112C183.893 368.112 184.385 367.973 184.799 367.695C185.219 367.41 185.501 367.029 185.643 366.551H186.756C186.649 367.064 186.431 367.513 186.103 367.898C185.782 368.283 185.38 368.583 184.895 368.797C184.417 369.011 183.886 369.118 183.301 369.118ZM187.527 366.38C187.527 365.845 187.645 365.371 187.88 364.957C188.116 364.544 188.436 364.22 188.843 363.984C189.256 363.749 189.727 363.631 190.254 363.631C190.782 363.631 191.249 363.749 191.655 363.984C192.062 364.22 192.383 364.544 192.618 364.957C192.853 365.371 192.971 365.845 192.971 366.38C192.971 366.915 192.853 367.389 192.618 367.802C192.383 368.216 192.062 368.54 191.655 368.775C191.249 369.011 190.782 369.128 190.254 369.128C189.727 369.128 189.256 369.011 188.843 368.775C188.436 368.54 188.116 368.216 187.88 367.802C187.645 367.389 187.527 366.915 187.527 366.38ZM188.543 366.38C188.543 366.743 188.615 367.064 188.757 367.342C188.907 367.62 189.11 367.838 189.367 367.995C189.623 368.152 189.919 368.23 190.254 368.23C190.59 368.23 190.885 368.152 191.142 367.995C191.399 367.838 191.598 367.62 191.741 367.342C191.891 367.064 191.966 366.743 191.966 366.38C191.966 366.009 191.891 365.688 191.741 365.417C191.598 365.139 191.399 364.922 191.142 364.765C190.885 364.608 190.59 364.53 190.254 364.53C189.919 364.53 189.623 364.608 189.367 364.765C189.11 364.922 188.907 365.139 188.757 365.417C188.615 365.688 188.543 366.009 188.543 366.38ZM195.089 369H194.084V363.77H194.982L195.121 364.733L194.993 364.647C195.1 364.355 195.296 364.113 195.581 363.92C195.873 363.72 196.226 363.621 196.64 363.621C197.103 363.621 197.488 363.745 197.795 363.995C198.101 364.245 198.301 364.576 198.394 364.99H198.212C198.283 364.576 198.479 364.245 198.8 363.995C199.121 363.745 199.516 363.621 199.987 363.621C200.586 363.621 201.056 363.795 201.399 364.145C201.741 364.494 201.912 364.972 201.912 365.578V369H200.928V365.824C200.928 365.41 200.821 365.093 200.607 364.872C200.401 364.644 200.119 364.53 199.762 364.53C199.513 364.53 199.292 364.587 199.099 364.701C198.914 364.808 198.768 364.965 198.661 365.171C198.554 365.378 198.5 365.621 198.5 365.899V369H197.506V365.813C197.506 365.4 197.403 365.086 197.196 364.872C196.989 364.651 196.707 364.54 196.351 364.54C196.101 364.54 195.88 364.597 195.688 364.712C195.502 364.818 195.356 364.975 195.249 365.182C195.142 365.382 195.089 365.621 195.089 365.899V369ZM204.311 369H203.306V363.77H204.204L204.343 364.733L204.215 364.647C204.322 364.355 204.518 364.113 204.803 363.92C205.095 363.72 205.448 363.621 205.862 363.621C206.325 363.621 206.71 363.745 207.017 363.995C207.323 364.245 207.523 364.576 207.615 364.99H207.434C207.505 364.576 207.701 364.245 208.022 363.995C208.343 363.745 208.738 363.621 209.209 363.621C209.808 363.621 210.278 363.795 210.621 364.145C210.963 364.494 211.134 364.972 211.134 365.578V369H210.15V365.824C210.15 365.41 210.043 365.093 209.829 364.872C209.622 364.644 209.341 364.53 208.984 364.53C208.735 364.53 208.514 364.587 208.321 364.701C208.136 364.808 207.99 364.965 207.883 365.171C207.776 365.378 207.722 365.621 207.722 365.899V369H206.728V365.813C206.728 365.4 206.624 365.086 206.418 364.872C206.211 364.651 205.929 364.54 205.573 364.54C205.323 364.54 205.102 364.597 204.91 364.712C204.724 364.818 204.578 364.975 204.471 365.182C204.364 365.382 204.311 365.621 204.311 365.899V369ZM216.142 363.77H217.137V369H216.239L216.132 368.209C215.982 368.48 215.747 368.701 215.426 368.872C215.105 369.043 214.752 369.128 214.367 369.128C213.761 369.128 213.29 368.939 212.955 368.562C212.627 368.177 212.463 367.663 212.463 367.022V363.77H213.469V366.69C213.469 367.246 213.579 367.645 213.8 367.888C214.028 368.123 214.335 368.241 214.72 368.241C215.183 368.241 215.536 368.098 215.779 367.813C216.021 367.521 216.142 367.093 216.142 366.53V363.77ZM219.601 369H218.595V363.77H219.504L219.611 364.572C219.775 364.273 220.011 364.041 220.317 363.877C220.631 363.706 220.973 363.621 221.344 363.621C222.028 363.621 222.535 363.817 222.862 364.209C223.19 364.601 223.354 365.132 223.354 365.802V369H222.349V366.027C222.349 365.499 222.235 365.121 222.007 364.893C221.779 364.658 221.472 364.54 221.087 364.54C220.617 364.54 220.249 364.694 219.986 365C219.729 365.307 219.601 365.717 219.601 366.23V369ZM224.747 369V363.77H225.752V369H224.747ZM225.239 362.53C225.061 362.53 224.904 362.466 224.768 362.337C224.64 362.202 224.576 362.045 224.576 361.867C224.576 361.681 224.64 361.525 224.768 361.396C224.904 361.268 225.061 361.204 225.239 361.204C225.424 361.204 225.581 361.268 225.709 361.396C225.838 361.525 225.902 361.681 225.902 361.867C225.902 362.045 225.838 362.202 225.709 362.337C225.581 362.466 225.424 362.53 225.239 362.53ZM226.655 363.77H229.714V364.615H226.655V363.77ZM228.687 369H227.682V362.134H228.687V369ZM231.033 363.77L232.873 368.861L232.253 369.717L229.975 363.77H231.033ZM230.114 371.342V370.519H230.787C230.951 370.519 231.101 370.501 231.237 370.465C231.372 370.437 231.497 370.369 231.611 370.262C231.725 370.162 231.821 370.002 231.9 369.781L234.103 363.77H235.14L232.67 370.176C232.491 370.626 232.267 370.95 231.996 371.15C231.725 371.349 231.39 371.449 230.991 371.449C230.827 371.449 230.673 371.438 230.531 371.417C230.388 371.403 230.249 371.378 230.114 371.342ZM242.353 362.123C241.797 362.123 241.32 362.252 240.92 362.508C240.521 362.765 240.214 363.122 240.001 363.578C239.787 364.034 239.68 364.569 239.68 365.182C239.68 365.802 239.79 366.334 240.011 366.776C240.239 367.218 240.557 367.556 240.963 367.792C241.369 368.02 241.836 368.134 242.364 368.134C242.699 368.134 243.009 368.091 243.294 368.005C243.58 367.92 243.829 367.788 244.043 367.61C244.257 367.424 244.424 367.189 244.546 366.904C244.674 366.619 244.738 366.284 244.738 365.899V365.171L245.23 365.674H242.15V364.744H245.722V369.011H244.845L244.738 367.578L244.877 367.749C244.763 368.005 244.581 368.237 244.332 368.444C244.082 368.651 243.783 368.818 243.433 368.947C243.084 369.068 242.699 369.128 242.278 369.128C241.551 369.128 240.91 368.964 240.353 368.636C239.797 368.301 239.362 367.838 239.049 367.246C238.735 366.654 238.578 365.959 238.578 365.161C238.578 364.376 238.735 363.681 239.049 363.075C239.37 362.469 239.815 361.995 240.386 361.653C240.956 361.311 241.619 361.14 242.375 361.14C242.938 361.14 243.451 361.243 243.915 361.45C244.378 361.649 244.76 361.934 245.059 362.305C245.366 362.669 245.558 363.1 245.637 363.599H244.524C244.382 363.107 244.111 362.74 243.712 362.498C243.319 362.248 242.867 362.123 242.353 362.123ZM250.039 363.728V364.647H249.59C249.112 364.647 248.734 364.786 248.456 365.064C248.185 365.335 248.05 365.724 248.05 366.23V369H247.044V363.781H247.986L248.071 364.829H247.975C248.046 364.487 248.217 364.209 248.488 363.995C248.759 363.774 249.098 363.663 249.504 363.663C249.597 363.663 249.682 363.671 249.761 363.685C249.846 363.692 249.939 363.706 250.039 363.728ZM250.452 366.38C250.452 365.845 250.569 365.371 250.804 364.957C251.04 364.544 251.361 364.22 251.767 363.984C252.18 363.749 252.651 363.631 253.179 363.631C253.706 363.631 254.173 363.749 254.58 363.984C254.986 364.22 255.307 364.544 255.542 364.957C255.777 365.371 255.895 365.845 255.895 366.38C255.895 366.915 255.777 367.389 255.542 367.802C255.307 368.216 254.986 368.54 254.58 368.775C254.173 369.011 253.706 369.128 253.179 369.128C252.651 369.128 252.18 369.011 251.767 368.775C251.361 368.54 251.04 368.216 250.804 367.802C250.569 367.389 250.452 366.915 250.452 366.38ZM251.468 366.38C251.468 366.743 251.539 367.064 251.681 367.342C251.831 367.62 252.034 367.838 252.291 367.995C252.548 368.152 252.844 368.23 253.179 368.23C253.514 368.23 253.81 368.152 254.066 367.995C254.323 367.838 254.523 367.62 254.665 367.342C254.815 367.064 254.89 366.743 254.89 366.38C254.89 366.009 254.815 365.688 254.665 365.417C254.523 365.139 254.323 364.922 254.066 364.765C253.81 364.608 253.514 364.53 253.179 364.53C252.844 364.53 252.548 364.608 252.291 364.765C252.034 364.922 251.831 365.139 251.681 365.417C251.539 365.688 251.468 366.009 251.468 366.38ZM257.891 369L256.179 363.77H257.217L258.083 366.487C258.147 366.679 258.204 366.879 258.254 367.086C258.304 367.285 258.354 367.499 258.404 367.727C258.432 367.571 258.465 367.421 258.5 367.278C258.543 367.128 258.586 366.989 258.628 366.861C258.671 366.726 258.71 366.601 258.746 366.487L259.623 363.77H260.65L261.516 366.487C261.545 366.551 261.569 366.637 261.591 366.743C261.619 366.843 261.651 366.95 261.687 367.064C261.723 367.178 261.755 367.292 261.783 367.407C261.812 367.521 261.837 367.628 261.858 367.727C261.887 367.585 261.915 367.449 261.944 367.321C261.979 367.185 262.015 367.054 262.051 366.925C262.094 366.79 262.14 366.644 262.19 366.487L263.067 363.77H264.115L262.329 369H261.377L260.468 366.198C260.382 365.934 260.311 365.703 260.254 365.503C260.204 365.296 260.165 365.121 260.136 364.979C260.108 365.107 260.065 365.268 260.008 365.46C259.958 365.645 259.887 365.895 259.794 366.209L258.885 369H257.891ZM264.42 363.77H267.479V364.615H264.42V363.77ZM266.452 369H265.447V362.134H266.452V369ZM269.387 368.989H268.381V361.129H269.387V364.572C269.55 364.287 269.786 364.059 270.092 363.888C270.399 363.71 270.755 363.621 271.162 363.621C271.825 363.621 272.32 363.817 272.648 364.209C272.976 364.601 273.14 365.132 273.14 365.802V369H272.135V366.027C272.135 365.67 272.082 365.385 271.975 365.171C271.875 364.95 271.729 364.79 271.536 364.69C271.351 364.59 271.133 364.54 270.884 364.54C270.563 364.54 270.288 364.612 270.06 364.754C269.839 364.897 269.672 365.089 269.558 365.332C269.444 365.574 269.387 365.845 269.387 366.145V368.989Z" fill="black"/>
<path d="M313.337 361.268V369H312.289V361.268H313.337ZM315.294 366.241H313.102V365.3H315.069C315.59 365.3 315.989 365.161 316.267 364.883C316.545 364.597 316.684 364.216 316.684 363.738C316.684 363.253 316.545 362.879 316.267 362.615C315.989 362.344 315.604 362.209 315.112 362.209H312.866V361.268H315.294C315.8 361.268 316.239 361.371 316.609 361.578C316.98 361.785 317.269 362.074 317.476 362.444C317.682 362.815 317.786 363.25 317.786 363.749C317.786 364.227 317.682 364.654 317.476 365.032C317.269 365.41 316.98 365.706 316.609 365.92C316.239 366.134 315.8 366.241 315.294 366.241ZM319.828 369H318.823V361.129H319.828V369ZM322.838 369.128C322.281 369.128 321.843 368.982 321.522 368.69C321.208 368.398 321.052 368.016 321.052 367.546C321.052 367.068 321.223 366.686 321.565 366.401C321.907 366.109 322.385 365.938 322.998 365.888L324.645 365.76V365.61C324.645 365.318 324.591 365.086 324.484 364.915C324.378 364.736 324.231 364.612 324.046 364.54C323.861 364.462 323.65 364.423 323.415 364.423C322.994 364.423 322.666 364.512 322.431 364.69C322.203 364.861 322.089 365.107 322.089 365.428H321.212C321.212 365.064 321.305 364.747 321.49 364.476C321.675 364.205 321.936 363.995 322.271 363.845C322.613 363.696 323.009 363.621 323.458 363.621C323.893 363.621 324.271 363.699 324.591 363.856C324.919 364.006 325.172 364.237 325.351 364.551C325.536 364.858 325.629 365.246 325.629 365.717V369H324.773L324.666 368.155C324.531 368.455 324.296 368.693 323.96 368.872C323.632 369.043 323.258 369.128 322.838 369.128ZM323.126 368.348C323.604 368.348 323.978 368.205 324.249 367.92C324.52 367.628 324.656 367.235 324.656 366.743V366.465L323.319 366.572C322.877 366.615 322.556 366.719 322.356 366.882C322.164 367.046 322.068 367.257 322.068 367.513C322.068 367.792 322.16 368.002 322.346 368.144C322.538 368.28 322.798 368.348 323.126 368.348ZM327.313 363.77L329.152 368.861L328.532 369.717L326.254 363.77H327.313ZM326.393 371.342V370.519H327.067C327.231 370.519 327.38 370.501 327.516 370.465C327.651 370.437 327.776 370.369 327.89 370.262C328.004 370.162 328.101 370.002 328.179 369.781L330.382 363.77H331.419L328.949 370.176C328.771 370.626 328.546 370.95 328.275 371.15C328.004 371.349 327.669 371.449 327.27 371.449C327.106 371.449 326.953 371.438 326.81 371.417C326.668 371.403 326.528 371.378 326.393 371.342ZM334.27 369.128C333.763 369.128 333.314 369.014 332.922 368.786C332.53 368.551 332.223 368.23 332.002 367.824C331.781 367.41 331.671 366.932 331.671 366.391C331.671 365.842 331.778 365.36 331.992 364.947C332.213 364.533 332.512 364.209 332.89 363.974C333.275 363.738 333.721 363.621 334.227 363.621C334.726 363.621 335.157 363.728 335.521 363.942C335.892 364.155 336.177 364.455 336.377 364.84C336.583 365.225 336.687 365.678 336.687 366.198V366.572L332.206 366.583L332.227 365.909H335.681C335.681 365.474 335.549 365.125 335.286 364.861C335.022 364.597 334.669 364.466 334.227 364.466C333.892 364.466 333.603 364.54 333.361 364.69C333.125 364.833 332.944 365.047 332.815 365.332C332.694 365.61 332.633 365.945 332.633 366.337C332.633 366.964 332.776 367.449 333.061 367.792C333.346 368.127 333.756 368.294 334.291 368.294C334.683 368.294 335.004 368.216 335.254 368.059C335.503 367.902 335.671 367.674 335.756 367.374H336.697C336.569 367.931 336.295 368.362 335.874 368.668C335.453 368.975 334.918 369.128 334.27 369.128ZM340.804 363.728V364.647H340.355C339.877 364.647 339.499 364.786 339.221 365.064C338.95 365.335 338.815 365.724 338.815 366.23V369H337.809V363.781H338.751L338.836 364.829H338.74C338.811 364.487 338.982 364.209 339.253 363.995C339.524 363.774 339.863 363.663 340.269 363.663C340.362 363.663 340.447 363.671 340.526 363.685C340.611 363.692 340.704 363.706 340.804 363.728ZM348.158 362.123C347.601 362.123 347.124 362.252 346.724 362.508C346.325 362.765 346.019 363.122 345.805 363.578C345.591 364.034 345.484 364.569 345.484 365.182C345.484 365.802 345.594 366.334 345.815 366.776C346.044 367.218 346.361 367.556 346.767 367.792C347.174 368.02 347.641 368.134 348.168 368.134C348.503 368.134 348.813 368.091 349.099 368.005C349.384 367.92 349.633 367.788 349.847 367.61C350.061 367.424 350.229 367.189 350.35 366.904C350.478 366.619 350.542 366.284 350.542 365.899V365.171L351.034 365.674H347.954V364.744H351.526V369.011H350.649L350.542 367.578L350.681 367.749C350.567 368.005 350.386 368.237 350.136 368.444C349.886 368.651 349.587 368.818 349.238 368.947C348.888 369.068 348.503 369.128 348.083 369.128C347.355 369.128 346.714 368.964 346.158 368.636C345.602 368.301 345.167 367.838 344.853 367.246C344.539 366.654 344.382 365.959 344.382 365.161C344.382 364.376 344.539 363.681 344.853 363.075C345.174 362.469 345.619 361.995 346.19 361.653C346.76 361.311 347.423 361.14 348.179 361.14C348.742 361.14 349.255 361.243 349.719 361.45C350.182 361.649 350.564 361.934 350.863 362.305C351.17 362.669 351.362 363.1 351.441 363.599H350.328C350.186 363.107 349.915 362.74 349.516 362.498C349.124 362.248 348.671 362.123 348.158 362.123ZM355.843 363.728V364.647H355.394C354.916 364.647 354.538 364.786 354.26 365.064C353.989 365.335 353.854 365.724 353.854 366.23V369H352.849V363.781H353.79L353.875 364.829H353.779C353.85 364.487 354.021 364.209 354.292 363.995C354.563 363.774 354.902 363.663 355.308 363.663C355.401 363.663 355.487 363.671 355.565 363.685C355.651 363.692 355.743 363.706 355.843 363.728ZM356.256 366.38C356.256 365.845 356.373 365.371 356.609 364.957C356.844 364.544 357.165 364.22 357.571 363.984C357.985 363.749 358.455 363.631 358.983 363.631C359.51 363.631 359.977 363.749 360.384 363.984C360.79 364.22 361.111 364.544 361.346 364.957C361.582 365.371 361.699 365.845 361.699 366.38C361.699 366.915 361.582 367.389 361.346 367.802C361.111 368.216 360.79 368.54 360.384 368.775C359.977 369.011 359.51 369.128 358.983 369.128C358.455 369.128 357.985 369.011 357.571 368.775C357.165 368.54 356.844 368.216 356.609 367.802C356.373 367.389 356.256 366.915 356.256 366.38ZM357.272 366.38C357.272 366.743 357.343 367.064 357.486 367.342C357.635 367.62 357.839 367.838 358.095 367.995C358.352 368.152 358.648 368.23 358.983 368.23C359.318 368.23 359.614 368.152 359.87 367.995C360.127 367.838 360.327 367.62 360.469 367.342C360.619 367.064 360.694 366.743 360.694 366.38C360.694 366.009 360.619 365.688 360.469 365.417C360.327 365.139 360.127 364.922 359.87 364.765C359.614 364.608 359.318 364.53 358.983 364.53C358.648 364.53 358.352 364.608 358.095 364.765C357.839 364.922 357.635 365.139 357.486 365.417C357.343 365.688 357.272 366.009 357.272 366.38ZM363.695 369L361.984 363.77H363.021L363.887 366.487C363.951 366.679 364.008 366.879 364.058 367.086C364.108 367.285 364.158 367.499 364.208 367.727C364.237 367.571 364.269 367.421 364.304 367.278C364.347 367.128 364.39 366.989 364.433 366.861C364.475 366.726 364.515 366.601 364.55 366.487L365.427 363.77H366.454L367.32 366.487C367.349 366.551 367.374 366.637 367.395 366.743C367.424 366.843 367.456 366.95 367.491 367.064C367.527 367.178 367.559 367.292 367.588 367.407C367.616 367.521 367.641 367.628 367.662 367.727C367.691 367.585 367.719 367.449 367.748 367.321C367.784 367.185 367.819 367.054 367.855 366.925C367.898 366.79 367.944 366.644 367.994 366.487L368.871 363.77H369.919L368.133 369H367.181L366.272 366.198C366.187 365.934 366.115 365.703 366.058 365.503C366.008 365.296 365.969 365.121 365.941 364.979C365.912 365.107 365.869 365.268 365.812 365.46C365.762 365.645 365.691 365.895 365.598 366.209L364.689 369H363.695ZM370.225 363.77H373.283V364.615H370.225V363.77ZM372.257 369H371.251V362.134H372.257V369ZM375.191 368.989H374.185V361.129H375.191V364.572C375.355 364.287 375.59 364.059 375.897 363.888C376.203 363.71 376.56 363.621 376.966 363.621C377.629 363.621 378.125 363.817 378.453 364.209C378.78 364.601 378.944 365.132 378.944 365.802V369H377.939V366.027C377.939 365.67 377.886 365.385 377.779 365.171C377.679 364.95 377.533 364.79 377.34 364.69C377.155 364.59 376.937 364.54 376.688 364.54C376.367 364.54 376.093 364.612 375.864 364.754C375.643 364.897 375.476 365.089 375.362 365.332C375.248 365.574 375.191 365.845 375.191 366.145V368.989Z" fill="black"/>
<g filter="url(#filter4_bd_1_400)">
<path d="M204.065 244.879C204.065 240.676 207.471 237.269 211.674 237.269H305.06C309.262 237.269 312.669 240.676 312.669 244.879V263.133C312.669 267.336 309.262 270.742 305.06 270.742H279.762C279.762 270.742 270.33 270.032 265.624 273.053C261.776 275.523 258.367 282.233 258.367 282.233C258.367 282.233 254.484 275.936 250.609 273.553C245.98 270.704 236.971 270.742 236.971 270.742H211.674C207.471 270.742 204.065 267.336 204.065 263.133V244.879Z" fill="white" fill-opacity="0.06" shape-rendering="crispEdges"/>
</g>
<path d="M221.479 257.262H219.8V249.348H221.479L223.832 255.252L226.195 249.348H227.896V257.262H226.217V255.604C226.217 255.177 226.217 254.824 226.217 254.546C226.217 254.268 226.22 254.036 226.227 253.851C226.235 253.665 226.242 253.505 226.249 253.369C226.263 253.227 226.281 253.081 226.302 252.931L224.623 257.262H223.04L221.372 252.931C221.422 253.223 221.451 253.54 221.458 253.883C221.472 254.225 221.479 254.613 221.479 255.048V257.262ZM230.956 257.401C230.393 257.401 229.943 257.248 229.608 256.941C229.28 256.628 229.116 256.21 229.116 255.69C229.116 255.198 229.284 254.806 229.619 254.514C229.961 254.221 230.453 254.05 231.095 254L232.592 253.883V253.797C232.592 253.619 232.556 253.473 232.485 253.359C232.414 253.237 232.31 253.148 232.175 253.091C232.047 253.027 231.883 252.995 231.683 252.995C231.334 252.995 231.066 253.059 230.881 253.187C230.703 253.316 230.614 253.501 230.614 253.744H229.245C229.245 253.337 229.348 252.984 229.555 252.685C229.762 252.385 230.054 252.154 230.432 251.99C230.817 251.826 231.262 251.744 231.769 251.744C232.289 251.744 232.728 251.836 233.084 252.022C233.448 252.207 233.722 252.478 233.907 252.835C234.1 253.191 234.196 253.626 234.196 254.139V257.262H232.742L232.635 256.556C232.549 256.799 232.346 257.002 232.025 257.166C231.712 257.323 231.355 257.401 230.956 257.401ZM231.533 256.182C231.847 256.182 232.104 256.107 232.303 255.957C232.503 255.801 232.603 255.569 232.603 255.262V254.973L231.769 255.048C231.412 255.077 231.159 255.137 231.009 255.23C230.867 255.316 230.795 255.444 230.795 255.615C230.795 255.808 230.856 255.95 230.977 256.043C231.098 256.136 231.284 256.182 231.533 256.182ZM239.056 251.915V253.466H238.532C238.062 253.466 237.691 253.58 237.42 253.808C237.156 254.036 237.024 254.414 237.024 254.941V257.262H235.377V251.926H236.928L237.057 253.07H236.907C236.978 252.713 237.139 252.421 237.388 252.193C237.645 251.958 237.991 251.84 238.425 251.84C238.525 251.84 238.625 251.847 238.725 251.861C238.832 251.868 238.942 251.886 239.056 251.915ZM241.536 257.262H239.889V249.198H241.536V253.84L243.269 251.915H245.333L243.322 254.032L245.269 257.262H243.365L242.167 255.262L241.536 255.925V257.262ZM248.219 257.401C247.684 257.401 247.206 257.28 246.786 257.038C246.372 256.795 246.044 256.464 245.802 256.043C245.567 255.615 245.449 255.127 245.449 254.578C245.449 254.022 245.563 253.533 245.791 253.113C246.027 252.685 246.351 252.35 246.764 252.107C247.178 251.865 247.652 251.744 248.187 251.744C248.75 251.744 249.235 251.861 249.641 252.097C250.048 252.325 250.361 252.653 250.582 253.081C250.803 253.501 250.914 254.004 250.914 254.588V255.006L246.315 255.027L246.337 254.011H249.278C249.278 253.726 249.181 253.501 248.989 253.337C248.796 253.166 248.533 253.081 248.198 253.081C247.919 253.081 247.691 253.134 247.513 253.241C247.342 253.348 247.214 253.515 247.128 253.744C247.043 253.965 247 254.25 247 254.599C247 255.098 247.1 255.469 247.299 255.711C247.506 255.947 247.823 256.064 248.251 256.064C248.565 256.064 248.825 256.011 249.032 255.904C249.238 255.797 249.37 255.647 249.427 255.455H250.935C250.843 256.046 250.55 256.521 250.058 256.877C249.566 257.226 248.953 257.401 248.219 257.401ZM251.334 251.915H255.013V253.284H251.334V251.915ZM253.997 257.262H252.35V250.257H253.997V257.262ZM255.753 257.262V251.915H257.4V257.262H255.753ZM256.566 251.081C256.302 251.081 256.078 250.992 255.892 250.813C255.714 250.628 255.625 250.403 255.625 250.14C255.625 249.876 255.714 249.655 255.892 249.476C256.078 249.298 256.302 249.209 256.566 249.209C256.823 249.209 257.04 249.298 257.219 249.476C257.404 249.655 257.497 249.876 257.497 250.14C257.497 250.403 257.404 250.628 257.219 250.813C257.04 250.992 256.823 251.081 256.566 251.081ZM260.283 257.262H258.636V251.915H260.187L260.294 252.471C260.458 252.243 260.682 252.065 260.967 251.936C261.26 251.808 261.58 251.744 261.93 251.744C262.564 251.744 263.056 251.94 263.406 252.332C263.762 252.717 263.94 253.259 263.94 253.957V257.262H262.293V254.353C262.293 254.018 262.208 253.751 262.037 253.551C261.866 253.344 261.638 253.241 261.352 253.241C261.024 253.241 260.764 253.341 260.572 253.54C260.379 253.733 260.283 253.997 260.283 254.332V257.262ZM264.854 254.492C264.854 253.95 264.961 253.473 265.175 253.059C265.396 252.646 265.699 252.321 266.084 252.086C266.476 251.851 266.922 251.733 267.421 251.733C267.842 251.733 268.202 251.819 268.501 251.99C268.808 252.161 269.018 252.385 269.132 252.663L268.972 252.77L269.1 251.915H270.651V256.92C270.651 257.554 270.533 258.1 270.298 258.556C270.062 259.02 269.727 259.372 269.292 259.615C268.858 259.864 268.333 259.989 267.72 259.989C266.9 259.989 266.234 259.768 265.72 259.326C265.207 258.891 264.911 258.296 264.833 257.54H266.501C266.515 257.84 266.629 258.071 266.843 258.235C267.057 258.406 267.346 258.492 267.71 258.492C268.109 258.492 268.423 258.381 268.651 258.16C268.886 257.939 269.004 257.64 269.004 257.262V256.128L269.185 256.267C269.071 256.546 268.85 256.77 268.522 256.941C268.194 257.112 267.817 257.198 267.389 257.198C266.89 257.198 266.448 257.084 266.063 256.856C265.685 256.628 265.389 256.31 265.175 255.904C264.961 255.497 264.854 255.027 264.854 254.492ZM266.512 254.449C266.512 254.706 266.565 254.934 266.672 255.134C266.779 255.326 266.925 255.48 267.111 255.594C267.296 255.708 267.51 255.765 267.752 255.765C268.002 255.765 268.219 255.711 268.405 255.604C268.597 255.49 268.743 255.337 268.843 255.145C268.95 254.945 269.004 254.713 269.004 254.449C269.004 254.186 268.95 253.961 268.843 253.776C268.743 253.583 268.597 253.433 268.405 253.327C268.219 253.22 267.998 253.166 267.742 253.166C267.499 253.166 267.285 253.22 267.1 253.327C266.915 253.433 266.769 253.583 266.662 253.776C266.562 253.968 266.512 254.193 266.512 254.449ZM274.484 251.647C274.484 251.17 274.609 250.749 274.858 250.386C275.108 250.015 275.45 249.726 275.885 249.519C276.327 249.305 276.83 249.198 277.393 249.198C277.963 249.198 278.455 249.298 278.869 249.498C279.282 249.698 279.6 249.979 279.821 250.343C280.049 250.706 280.163 251.138 280.163 251.637H278.441C278.441 251.359 278.345 251.141 278.152 250.984C277.96 250.82 277.7 250.738 277.372 250.738C277.022 250.738 276.741 250.813 276.527 250.963C276.32 251.113 276.217 251.32 276.217 251.583C276.217 251.826 276.281 252.011 276.409 252.139C276.538 252.268 276.741 252.36 277.019 252.417L278.206 252.663C278.912 252.806 279.436 253.056 279.778 253.412C280.12 253.761 280.291 254.25 280.291 254.877C280.291 255.383 280.167 255.829 279.917 256.214C279.667 256.592 279.315 256.884 278.858 257.091C278.409 257.298 277.881 257.401 277.275 257.401C276.691 257.401 276.177 257.301 275.735 257.102C275.301 256.902 274.962 256.62 274.719 256.257C274.484 255.886 274.367 255.455 274.367 254.963H276.088C276.088 255.248 276.192 255.469 276.399 255.626C276.605 255.783 276.901 255.861 277.286 255.861C277.678 255.861 277.988 255.79 278.217 255.647C278.445 255.497 278.559 255.298 278.559 255.048C278.559 254.827 278.502 254.656 278.388 254.535C278.281 254.414 278.095 254.328 277.832 254.278L276.623 254.032C275.917 253.89 275.383 253.619 275.019 253.22C274.662 252.82 274.484 252.296 274.484 251.647ZM280.734 251.915H284.413V253.284H280.734V251.915ZM283.397 257.262H281.75V250.257H283.397V257.262ZM286.768 257.401C286.204 257.401 285.755 257.248 285.42 256.941C285.092 256.628 284.928 256.21 284.928 255.69C284.928 255.198 285.096 254.806 285.431 254.514C285.773 254.221 286.265 254.05 286.907 254L288.404 253.883V253.797C288.404 253.619 288.368 253.473 288.297 253.359C288.226 253.237 288.122 253.148 287.987 253.091C287.859 253.027 287.695 252.995 287.495 252.995C287.146 252.995 286.878 253.059 286.693 253.187C286.515 253.316 286.426 253.501 286.426 253.744H285.057C285.057 253.337 285.16 252.984 285.367 252.685C285.574 252.385 285.866 252.154 286.244 251.99C286.629 251.826 287.074 251.744 287.581 251.744C288.101 251.744 288.539 251.836 288.896 252.022C289.26 252.207 289.534 252.478 289.719 252.835C289.912 253.191 290.008 253.626 290.008 254.139V257.262H288.554L288.447 256.556C288.361 256.799 288.158 257.002 287.837 257.166C287.523 257.323 287.167 257.401 286.768 257.401ZM287.345 256.182C287.659 256.182 287.916 256.107 288.115 255.957C288.315 255.801 288.415 255.569 288.415 255.262V254.973L287.581 255.048C287.224 255.077 286.971 255.137 286.821 255.23C286.679 255.316 286.607 255.444 286.607 255.615C286.607 255.808 286.668 255.95 286.789 256.043C286.91 256.136 287.096 256.182 287.345 256.182ZM294.868 251.915V253.466H294.344C293.874 253.466 293.503 253.58 293.232 253.808C292.968 254.036 292.836 254.414 292.836 254.941V257.262H291.189V251.926H292.74L292.868 253.07H292.719C292.79 252.713 292.95 252.421 293.2 252.193C293.457 251.958 293.802 251.84 294.237 251.84C294.337 251.84 294.437 251.847 294.537 251.861C294.644 251.868 294.754 251.886 294.868 251.915ZM295.407 251.915H299.086V253.284H295.407V251.915ZM298.07 257.262H296.423V250.257H298.07V257.262Z" fill="#2D2D2D" fill-opacity="0.81"/>
</g>
<defs>
<filter id="filter0_f_1_400" x="-307.828" y="-397.063" width="816.954" height="816.954" filterUnits="userSpaceOnUse" color-interpolation-filters="sRGB">
<feFlood flood-opacity="0" result="BackgroundImageFix"/>
<feBlend mode="normal" in="SourceGraphic" in2="BackgroundImageFix" result="shape"/>
<feGaussianBlur stdDeviation="139.733" result="effect1_foregroundBlur_1_400"/>
</filter>
<filter id="filter1_f_1_400" x="261.48" y="39.4298" width="508.434" height="508.434" filterUnits="userSpaceOnUse" color-interpolation-filters="sRGB">
<feFlood flood-opacity="0" result="BackgroundImageFix"/>
<feBlend mode="normal" in="SourceGraphic" in2="BackgroundImageFix" result="shape"/>
<feGaussianBlur stdDeviation="87.8519" result="effect1_foregroundBlur_1_400"/>
</filter>
<filter id="filter2_f_1_400" x="-204.705" y="91.2962" width="492.524" height="492.524" filterUnits="userSpaceOnUse" color-interpolation-filters="sRGB">
<feFlood flood-opacity="0" result="BackgroundImageFix"/>
<feBlend mode="normal" in="SourceGraphic" in2="BackgroundImageFix" result="shape"/>
<feGaussianBlur stdDeviation="87.8519" result="effect1_foregroundBlur_1_400"/>
</filter>
<filter id="filter3_d_1_400" x="92.105" y="151.417" width="430.051" height="162.345" filterUnits="userSpaceOnUse" color-interpolation-filters="sRGB">
<feFlood flood-opacity="0" result="BackgroundImageFix"/>
<feColorMatrix in="SourceAlpha" type="matrix" values="0 0 0 0 0 0 0 0 0 0 0 0 0 0 0 0 0 0 127 0" result="hardAlpha"/>
<feOffset dy="4.0741"/>
<feGaussianBlur stdDeviation="3.56483"/>
<feComposite in2="hardAlpha" operator="out"/>
<feColorMatrix type="matrix" values="0 0 0 0 0 0 0 0 0 0 0 0 0 0 0 0 0 0 0.25 0"/>
<feBlend mode="normal" in2="BackgroundImageFix" result="effect1_dropShadow_1_400"/>
<feBlend mode="normal" in="SourceGraphic" in2="effect1_dropShadow_1_400" result="shape"/>
</filter>
<filter id="filter4_bd_1_400" x="190.921" y="228.277" width="134.891" height="71.25" filterUnits="userSpaceOnUse" color-interpolation-filters="sRGB">
<feFlood flood-opacity="0" result="BackgroundImageFix"/>
<feGaussianBlur in="BackgroundImageFix" stdDeviation="4.15049"/>
<feComposite in2="SourceAlpha" operator="in" result="effect1_backgroundBlur_1_400"/>
<feColorMatrix in="SourceAlpha" type="matrix" values="0 0 0 0 0 0 0 0 0 0 0 0 0 0 0 0 0 0 127 0" result="hardAlpha"/>
<feOffset dy="4.15049"/>
<feGaussianBlur stdDeviation="6.5716"/>
<feComposite in2="hardAlpha" operator="out"/>
<feColorMatrix type="matrix" values="0 0 0 0 0 0 0 0 0 0 0 0 0 0 0 0 0 0 0.25 0"/>
<feBlend mode="normal" in2="effect1_backgroundBlur_1_400" result="effect2_dropShadow_1_400"/>
<feBlend mode="normal" in="SourceGraphic" in2="effect2_dropShadow_1_400" result="shape"/>
</filter>
<clipPath id="clip0_1_400">
<rect width="570" height="400.522" rx="28" fill="white"/>
</clipPath>
</defs>
</svg>
