<svg width="181" height="73" viewBox="0 0 181 73" fill="none" xmlns="http://www.w3.org/2000/svg">
<path d="M10.2164 0L48.1924 5.93185e-05L58.1138 15.7278H18.4358L10.2164 0Z" fill="#2C2C2C"/>
<path d="M39.9615 17.1886L39.9606 17.1901L58.1138 17.1906L39.9615 17.1886Z" fill="#2C2C2C"/>
<path d="M48.1924 32.9115L58.1138 17.1906L39.9615 17.1886L30.3389 32.9115H48.1924Z" fill="#2C2C2C"/>
<path d="M9.65139 35.3508H27.243L18.4358 51.0807H0L9.65139 35.3508Z" fill="#2C2C2C"/>
<path d="M112.772 51.1861V21.9756L121.551 27.2335V51.1861H112.772Z" fill="#2C2C2C"/>
<path d="M117.06 11.3134H125.769L121.414 18.7654H112.706L117.06 11.3134Z" fill="#2C2C2C"/>
<path d="M131.742 51.1183H139.933V29.2105H147.267V21.9079H139.933V9.19979H147.267L139.933 1.96461H131.742V21.9079L124.408 29.2105H131.742V51.1183Z" fill="#2C2C2C"/>
<path d="M92.8598 51.1183V7.30262L102.793 0V40.7533H106.341V51.1183H92.8598Z" fill="#2C2C2C"/>
<path d="M171.856 51.0922V73L180.841 65.6974V37.2337H171.856V43.7895H157.188V21.8817L149.854 29.1843V51.0922H171.856Z" fill="#2C2C2C"/>
<path d="M171.856 37.2337L180.841 32.2883V21.8817L171.856 27.1396V37.2337Z" fill="#2C2C2C"/>
<path d="M57.5776 43.7772L64.9116 51.0798H79.5797L86.9137 43.7772V37.2598H57.5776V43.7772Z" fill="#2C2C2C"/>
<path d="M57.5776 35.7694V29.172L64.9116 21.8694H79.5797L86.9137 29.172V35.7694H57.5776Z" fill="#2C2C2C"/>
</svg>
